<svg xmlns="http://www.w3.org/2000/svg" width="486" height="486" viewBox="0 0 486 486">
<g>
<path d="M 181.10 401.62 C180.35,400.72 180.09,384.55 180.18,342.15 C180.23,363.09 180.48,375.00 180.91,375.00 C182.27,375.00 184.77,372.31 185.47,370.09 C185.94,368.61 189.79,366.58 191.25,367.05 C191.39,367.09 193.52,366.21 196.00,365.08 C198.48,363.96 201.57,363.03 202.88,363.02 C204.19,363.01 206.87,362.01 208.83,360.79 C210.80,359.58 213.52,358.57 214.89,358.54 C216.71,358.51 217.97,357.44 219.66,354.50 C223.03,348.60 228.00,338.20 228.00,337.02 C228.00,336.46 228.45,336.00 229.00,336.00 C229.62,336.00 230.00,330.50 230.00,321.50 C230.00,312.98 229.61,307.00 229.05,307.00 C227.38,307.00 224.59,300.01 225.77,298.83 C226.40,298.20 225.82,296.77 223.83,294.13 C224.35,294.76 224.89,295.40 225.45,296.05 L 230.00 301.38 L 230.00 350.26 C230.00,382.03 229.64,399.81 228.96,401.07 C227.99,402.89 226.65,403.00 205.09,403.00 C186.92,403.00 182.01,402.72 181.10,401.62 ZM 284.50 340.15 C283.26,339.39 272.58,328.83 260.67,316.79 C260.79,316.90 260.86,316.95 260.88,316.95 C261.08,316.98 260.99,315.69 260.67,314.09 C259.71,309.29 261.65,308.55 274.86,308.75 C285.39,308.91 287.26,308.66 294.50,306.07 C298.90,304.49 308.47,301.34 315.77,299.05 C327.73,295.31 331.92,294.70 330.56,296.90 C330.30,297.32 330.91,297.60 331.92,297.52 C334.43,297.34 341.53,291.36 353.44,279.39 C364.05,268.74 366.59,266.22 366.17,265.55 C366.03,265.33 365.54,265.32 364.90,265.27 C360.63,264.95 356.11,262.89 356.64,261.51 C357.04,260.44 355.74,260.58 350.83,262.11 C349.64,262.49 348.20,262.91 346.70,263.34 C354.12,261.14 362.94,258.22 367.32,256.41 C369.85,255.36 371.72,254.67 373.07,254.34 C371.87,254.71 371.54,255.63 371.45,258.13 L 371.36 260.80 C367.95,264.55 362.95,269.83 357.41,275.50 C347.20,285.95 329.09,304.56 317.17,316.85 C296.96,337.69 292.09,342.01 288.80,342.00 C288.08,341.99 286.15,341.16 284.50,340.15 ZM 118.67 402.33 C118.30,401.97 118.00,377.27 118.00,347.46 C118.00,346.91 118.00,346.37 118.00,345.84 C118.01,373.88 118.30,396.97 118.67,397.33 C119.63,398.30 121.52,398.16 124.70,396.88 L 129.50 394.95 C130.60,394.50 134.27,393.23 137.65,392.11 C141.03,390.99 145.87,389.16 148.40,388.04 C150.93,386.92 155.04,385.10 157.53,384.00 C163.08,381.55 164.61,381.50 165.92,383.75 C166.62,384.96 166.95,371.54 166.97,340.44 C166.97,333.35 166.97,327.31 166.95,322.18 C166.99,328.97 167.00,337.33 167.00,347.62 C167.00,393.77 166.82,400.04 165.43,401.43 C164.09,402.76 160.50,403.00 141.60,403.00 C129.35,403.00 119.03,402.70 118.67,402.33 ZM 313.61 272.03 C318.38,270.21 324.62,268.63 333.97,266.59 C324.24,268.92 318.06,270.48 313.61,272.03 ZM 215.36 282.95 C210.28,275.24 209.90,271.01 213.26,267.65 C210.05,270.86 210.51,275.40 215.36,282.95 ZM 233.38 288.78 C229.65,284.86 226.99,281.99 226.13,280.89 C224.97,279.42 224.55,278.61 224.73,277.59 C224.60,279.14 226.21,281.24 233.38,288.78 ZM 373.74 254.19 C375.36,253.89 376.00,254.26 375.99,255.25 C375.99,255.31 375.93,255.42 375.82,255.58 C376.14,254.43 375.46,253.94 373.79,254.18 C373.77,254.18 373.76,254.18 373.74,254.19 Z" fill="rgba(12,140,204,1)"/>
<path d="M 189.04 436.99 C228.54,436.95 230.02,436.69 228.46,435.20 C227.42,434.21 225.65,433.38 224.53,433.34 C217.58,433.14 217.35,433.05 219.44,431.47 C221.36,430.01 221.36,430.00 219.44,429.97 C217.52,429.94 217.52,429.92 219.44,428.47 C221.17,427.16 220.90,426.54 218.75,426.88 C218.34,426.95 218.00,426.55 218.00,426.00 C218.00,425.45 218.54,425.00 219.20,425.00 C220.12,425.00 220.13,424.73 219.22,423.82 C218.39,422.99 218.35,422.28 219.11,421.37 C220.76,419.38 219.23,418.00 215.39,418.00 C213.47,418.00 210.61,417.33 209.02,416.51 C206.59,415.25 198.90,415.03 159.26,415.08 C138.56,415.10 120.08,414.93 112.83,414.66 C131.64,415.31 226.87,415.00 270.50,414.04 C317.19,413.02 346.06,409.90 366.00,403.72 C375.56,400.75 387.90,394.65 392.77,390.47 C398.44,385.61 400.37,386.27 399.43,392.74 C398.41,399.77 394.29,409.39 389.52,415.87 C382.28,425.69 372.56,432.05 360.08,435.11 C352.89,436.88 345.99,436.98 227.00,436.99 L 189.04 436.99 Z" fill="rgba(62,78,199,1)"/>
<path d="M 244.21 300.04 C227.09,282.31 224.33,279.51 224.76,277.36 C224.78,277.30 224.79,277.23 224.81,277.17 C224.63,279.23 226.62,281.63 232.15,287.48 C236.59,292.16 240.44,296.00 240.72,296.00 C240.99,296.00 240.89,295.21 240.49,294.25 C240.09,293.29 239.26,290.29 238.63,287.60 C237.91,284.47 236.92,282.61 235.90,282.46 C235.03,282.33 232.38,281.00 230.01,279.51 C226.74,277.44 226.05,276.58 227.11,275.91 C227.87,275.43 228.05,274.96 227.50,274.88 C226.95,274.80 228.07,274.41 230.00,274.00 L 231.38 273.71 C232.15,273.73 233.03,273.76 234.05,273.80 C244.54,274.23 261.72,279.54 277.00,287.07 C284.54,290.79 286.91,291.55 288.50,290.77 C289.60,290.22 294.10,286.31 298.50,282.08 C307.95,272.99 309.25,272.45 338.50,265.51 C341.80,264.73 347.35,263.20 350.83,262.11 C355.74,260.58 357.04,260.44 356.64,261.51 C356.11,262.89 360.63,264.95 364.90,265.27 C365.54,265.32 366.03,265.33 366.17,265.55 C366.59,266.22 364.05,268.74 353.44,279.39 C341.53,291.36 334.43,297.34 331.92,297.52 C330.91,297.60 330.30,297.32 330.56,296.90 C331.92,294.70 327.73,295.31 315.77,299.05 C308.47,301.34 298.90,304.49 294.50,306.07 C287.26,308.66 285.39,308.91 274.86,308.75 C261.65,308.55 259.71,309.29 260.67,314.09 C260.99,315.69 261.08,316.98 260.88,316.95 C260.67,316.93 253.17,309.32 244.21,300.04 ZM 180.23 313.46 C180.26,306.79 180.29,300.82 180.32,295.48 C180.55,299.08 180.98,301.30 181.70,303.82 C182.69,307.30 184.26,310.97 185.19,311.97 C187.57,314.53 193.59,313.57 197.67,309.98 C199.42,308.45 202.23,306.89 203.93,306.52 C205.62,306.14 207.00,305.46 207.00,304.99 C207.00,304.52 208.01,304.00 209.25,303.82 C212.35,303.38 212.61,299.68 210.05,292.41 C206.41,282.03 207.87,278.42 213.99,282.71 L 216.30 284.32 C217.96,286.71 220.04,289.42 222.55,292.51 C225.56,296.21 226.52,298.08 225.77,298.83 C224.59,300.01 227.38,307.00 229.05,307.00 C229.61,307.00 230.00,312.98 230.00,321.50 C230.00,330.50 229.62,336.00 229.00,336.00 C228.45,336.00 228.00,336.46 228.00,337.02 C228.00,338.20 223.03,348.60 219.66,354.50 C217.97,357.44 216.71,358.51 214.89,358.54 C213.52,358.57 210.80,359.58 208.83,360.79 C206.87,362.01 204.19,363.01 202.88,363.02 C201.57,363.03 198.48,363.96 196.00,365.08 C193.52,366.21 191.39,367.09 191.25,367.05 C189.79,366.58 185.94,368.61 185.47,370.09 C184.77,372.31 182.27,375.00 180.91,375.00 C180.31,375.00 180.06,351.90 180.23,313.46 ZM 118.67 397.33 C118.30,396.97 118.00,373.40 118.00,344.96 C118.00,330.73 118.02,320.26 118.10,312.57 C118.06,318.31 118.06,325.61 118.08,334.87 C118.14,368.27 118.39,375.76 119.33,372.76 C120.67,368.48 123.36,365.00 125.33,365.00 C126.39,365.00 146.06,351.97 150.50,348.32 C151.05,347.87 152.62,346.92 154.00,346.21 C155.38,345.50 157.37,343.10 158.44,340.89 C159.51,338.67 161.14,336.46 162.05,335.97 C163.39,335.25 163.92,335.79 164.83,338.79 C165.45,340.83 166.13,343.40 166.36,344.50 C166.58,345.60 166.82,335.00 166.88,320.94 C166.90,318.39 166.90,316.08 166.90,313.98 C166.96,320.54 166.98,329.15 166.97,340.44 C166.95,371.54 166.62,384.96 165.92,383.75 C164.61,381.50 163.08,381.55 157.53,384.00 C155.04,385.10 150.93,386.92 148.40,388.04 C145.87,389.16 141.03,390.99 137.65,392.11 C134.27,393.23 130.60,394.50 129.50,394.95 L 124.70 396.88 C121.52,398.16 119.63,398.30 118.67,397.33 ZM 340.37 255.21 C339.89,255.99 340.27,256.10 341.59,255.57 C342.61,255.16 345.08,254.59 347.13,254.29 C344.78,254.95 342.55,255.59 340.93,256.07 C337.32,257.13 333.43,258.00 332.30,258.00 C331.17,258.00 328.63,258.67 326.65,259.50 C326.57,259.54 326.48,259.57 326.40,259.61 C326.40,259.25 326.19,258.68 325.79,258.04 C325.06,256.87 324.70,256.45 324.10,256.70 C325.86,254.73 328.40,252.13 331.27,249.37 C333.18,247.53 335.09,245.71 337.00,243.93 L 341.37 242.05 C343.82,241.01 346.07,240.40 346.38,240.71 C346.69,241.02 349.01,240.70 351.53,239.99 C354.97,239.03 356.39,238.99 357.25,239.85 C357.88,240.48 359.67,241.00 361.23,241.00 C364.00,241.00 377.46,237.01 383.65,234.35 C385.38,233.61 387.18,232.99 387.65,232.99 C388.12,232.98 391.04,231.69 394.14,230.11 C399.65,227.32 403.00,227.33 401.55,230.14 C401.50,230.24 401.51,230.28 401.56,230.27 C396.46,235.11 393.42,236.98 385.73,240.75 C379.83,243.64 374.61,246.00 374.14,246.00 C373.66,246.00 371.07,246.85 368.38,247.88 C367.40,248.26 366.00,248.75 364.41,249.27 C364.43,249.12 363.53,249.10 361.83,249.07 C357.68,248.99 355.00,249.79 355.00,251.11 C355.00,251.60 355.11,251.98 355.25,251.96 C355.37,251.93 357.26,251.42 359.62,250.77 C358.20,251.19 356.79,251.60 355.50,251.95 C354.16,252.32 352.61,252.75 351.01,253.19 C352.15,252.59 352.18,252.00 350.31,252.01 C347.29,252.01 341.12,254.00 340.37,255.21 ZM 374.43 212.53 C387.17,203.07 399.40,195.31 410.52,189.69 C399.90,195.05 387.17,203.17 374.43,212.53 ZM 435.59 187.44 C432.72,194.30 424.02,206.19 413.58,217.82 C424.29,205.73 432.85,193.99 435.59,187.44 ZM 215.12 282.57 L 214.11 281.16 C213.27,279.97 212.42,278.15 211.86,276.43 C212.51,278.20 213.59,280.22 215.12,282.57 ZM 325.09 260.15 C322.50,261.19 322.21,261.12 321.64,260.23 C321.98,260.72 322.88,260.88 323.68,260.57 C324.12,260.40 324.63,260.25 325.09,260.15 ZM 211.12 271.86 C211.15,270.17 211.74,269.17 213.26,267.65 C212.02,268.89 211.29,270.25 211.12,271.86 ZM 321.57 260.12 C321.56,260.10 321.55,260.07 321.56,260.04 C321.57,260.09 321.59,260.14 321.62,260.19 C321.60,260.16 321.59,260.14 321.57,260.12 Z" fill="rgba(25,173,211,1)"/>
<path d="M 118.08 334.87 C118.01,300.07 118.23,293.05 119.42,292.07 C120.44,291.22 126.95,290.97 142.50,291.19 C162.60,291.48 164.27,291.64 165.58,293.44 C166.73,295.01 166.98,300.32 166.88,320.94 C166.82,335.00 166.58,345.60 166.36,344.50 C166.13,343.40 165.45,340.83 164.83,338.79 C163.92,335.79 163.39,335.25 162.05,335.97 C161.14,336.46 159.51,338.67 158.44,340.89 C157.37,343.10 155.38,345.50 154.00,346.21 C152.62,346.92 151.05,347.87 150.50,348.32 C146.06,351.97 126.39,365.00 125.33,365.00 C123.36,365.00 120.67,368.48 119.33,372.76 C118.39,375.76 118.14,368.27 118.08,334.87 ZM 342.91 238.43 C363.70,219.18 390.78,199.66 410.52,189.69 C425.78,181.99 432.35,180.02 435.34,182.24 C437.08,183.53 437.10,183.84 435.59,187.44 C432.35,195.20 420.94,210.23 407.46,224.50 C403.83,228.35 401.17,230.89 401.55,230.14 C403.00,227.33 399.65,227.32 394.14,230.11 C391.04,231.69 388.12,232.98 387.65,232.99 C387.18,232.99 385.38,233.61 383.65,234.35 C377.46,237.01 364.00,241.00 361.23,241.00 C359.67,241.00 357.88,240.48 357.25,239.85 C356.39,238.99 354.97,239.03 351.53,239.99 C349.01,240.70 346.69,241.02 346.38,240.71 C346.07,240.40 343.82,241.01 341.37,242.05 L 336.93 243.96 ZM 185.19 311.97 C184.26,310.97 182.69,307.30 181.70,303.82 C180.14,298.37 179.93,294.28 180.20,274.70 C180.45,255.77 180.75,251.76 182.00,250.98 C182.83,250.46 193.49,250.02 205.71,250.02 C227.07,250.00 227.97,250.08 229.02,252.04 C229.62,253.17 229.98,255.74 229.81,257.77 C229.48,261.73 229.37,261.80 220.14,264.07 C217.73,264.66 214.64,266.27 213.26,267.65 C211.19,269.72 210.85,270.82 211.28,274.03 C211.56,276.16 212.84,279.37 214.11,281.16 L 216.43 284.42 L 213.99 282.71 C207.87,278.42 206.41,282.03 210.05,292.41 C212.61,299.68 212.35,303.38 209.25,303.82 C208.01,304.00 207.00,304.52 207.00,304.99 C207.00,305.46 205.62,306.14 203.93,306.52 C202.23,306.89 199.42,308.45 197.67,309.98 C193.59,313.57 187.57,314.53 185.19,311.97 ZM 232.15 287.48 C224.09,278.97 223.56,277.76 226.28,274.25 C226.81,273.56 228.65,273.06 230.37,273.13 L 233.50 273.26 L 230.00 274.00 C228.07,274.41 226.95,274.80 227.50,274.88 C228.05,274.96 227.87,275.43 227.11,275.91 C226.05,276.58 226.74,277.44 230.01,279.51 C232.38,281.00 235.03,282.33 235.90,282.46 C236.92,282.61 237.91,284.47 238.63,287.60 C239.26,290.29 240.09,293.29 240.49,294.25 C240.89,295.21 240.99,296.00 240.72,296.00 C240.44,296.00 236.59,292.16 232.15,287.48 ZM 340.37 255.21 C341.12,254.00 347.29,252.01 350.31,252.01 C353.49,252.00 351.19,253.71 347.27,254.27 C345.20,254.56 342.64,255.15 341.59,255.57 C340.27,256.10 339.89,255.99 340.37,255.21 ZM 355.00 251.11 C355.00,249.79 357.68,248.99 361.83,249.07 C365.47,249.13 365.46,249.15 360.50,250.52 C357.75,251.29 355.39,251.93 355.25,251.96 C355.11,251.98 355.00,251.60 355.00,251.11 Z" fill="rgba(55,198,208,1)"/>
<path d="M 307.00 402.14 C305.73,401.32 305.50,396.98 305.50,373.23 L 305.50 370.66 C305.54,372.23 305.60,373.95 305.69,375.75 L 306.30 387.92 L 308.90 386.14 C314.26,382.47 322.99,378.86 324.98,379.49 C326.08,379.84 331.60,379.23 337.24,378.13 C342.88,377.04 349.08,375.88 351.00,375.55 C357.27,374.51 358.44,374.25 362.76,372.95 C365.11,372.25 367.52,371.07 368.13,370.34 C368.75,369.60 370.01,369.00 370.94,369.00 C373.69,369.00 377.45,364.08 382.02,354.50 C384.69,348.92 387.93,343.91 390.56,341.33 C392.90,339.04 395.07,335.89 395.40,334.33 C398.21,320.81 399.22,308.82 399.71,282.77 C399.79,278.64 399.85,275.10 399.89,272.05 C399.98,280.79 400.00,293.61 400.00,312.40 C400.00,349.31 399.63,371.85 398.99,373.52 C398.44,374.98 395.40,378.74 392.24,381.88 C383.22,390.83 371.04,395.87 348.50,399.97 C336.07,402.24 309.33,403.63 307.00,402.14 ZM 95.40 434.11 C92.04,432.52 88.38,429.94 87.26,428.36 C86.67,427.53 86.15,426.87 85.70,426.17 C85.09,425.25 84.60,424.26 84.19,422.72 C85.79,425.46 89.00,428.95 89.00,427.71 C89.00,427.39 90.24,427.77 91.75,428.56 C93.26,429.35 95.18,429.72 96.00,429.37 C96.82,429.03 100.65,427.99 104.50,427.06 C112.40,425.16 112.63,425.09 115.82,423.88 C117.09,423.40 118.78,423.00 119.57,423.00 C122.55,423.00 120.81,420.98 116.07,418.94 C113.36,417.77 110.90,416.18 110.60,415.41 C110.47,415.06 110.21,414.74 109.88,414.49 C112.68,414.85 134.36,415.11 159.26,415.08 C198.90,415.03 206.59,415.25 209.02,416.51 C210.61,417.33 213.47,418.00 215.39,418.00 C219.23,418.00 220.76,419.38 219.11,421.37 C218.35,422.28 218.39,422.99 219.22,423.82 C220.13,424.73 220.12,425.00 219.20,425.00 C218.54,425.00 218.00,425.45 218.00,426.00 C218.00,426.55 218.34,426.95 218.75,426.88 C220.90,426.54 221.17,427.16 219.44,428.47 C217.52,429.92 217.52,429.94 219.44,429.97 C221.36,430.00 221.36,430.01 219.44,431.47 C217.35,433.05 217.58,433.14 224.53,433.34 C225.65,433.38 227.42,434.21 228.46,435.20 C230.28,436.93 227.96,437.00 165.92,437.00 L 101.50 437.00 ZM 243.61 401.42 C243.12,400.16 242.95,381.51 243.02,362.27 C243.09,377.95 243.42,385.86 244.00,385.50 C244.55,385.16 245.00,383.96 245.00,382.82 C245.00,381.14 245.40,380.90 247.25,381.51 C250.29,382.52 260.37,382.94 266.56,382.32 C270.86,381.89 272.32,381.15 276.31,377.32 C280.28,373.52 280.90,372.42 280.36,370.17 C279.28,365.65 276.95,361.83 272.06,356.56 C265.27,349.22 260.36,342.08 256.94,334.53 C254.26,328.63 253.44,327.69 249.38,325.95 C246.88,324.88 244.42,324.00 243.92,324.00 C243.74,324.00 243.57,325.48 243.43,328.13 C243.58,322.80 243.76,319.35 243.97,319.02 C244.71,317.85 248.19,320.77 260.70,333.12 C276.73,348.93 281.52,352.71 288.25,354.92 L 292.00 356.16 L 292.00 378.97 C292.00,398.85 291.80,401.86 290.42,402.39 C289.55,402.73 278.80,403.00 266.53,403.00 C247.10,403.00 244.14,402.80 243.61,401.42 ZM 305.50 365.32 L 305.50 345.28 L 347.60 302.89 C370.75,279.58 391.27,258.74 393.19,256.58 C395.60,253.89 397.21,252.87 398.35,253.30 C398.41,253.33 398.47,253.36 398.53,253.40 C397.14,253.36 391.76,258.27 380.14,270.16 C370.16,280.38 363.78,287.63 364.60,287.82 C365.37,288.00 366.00,288.42 366.00,288.74 C366.00,289.07 363.19,292.31 359.75,295.94 C352.89,303.18 351.08,305.35 341.19,318.19 C337.51,322.98 330.90,331.33 326.50,336.76 C315.71,350.08 308.71,358.97 307.50,360.90 C306.95,361.78 306.18,362.74 305.79,363.04 C305.65,363.14 305.55,363.98 305.50,365.32 ZM 353.52 299.03 C354.39,300.43 357.52,296.93 358.40,293.56 C358.79,292.07 358.20,292.34 355.83,294.71 C353.92,296.61 353.04,298.26 353.52,299.03 ZM 83.10 414.63 C82.43,405.02 82.28,386.69 82.18,348.91 C82.38,378.20 82.69,403.06 83.10,414.63 ZM 105.96 411.80 C105.81,411.56 105.66,411.31 105.53,411.05 C104.81,409.67 104.43,405.23 104.22,387.19 C104.46,402.54 104.95,408.97 105.96,411.80 ZM 82.08 232.40 C82.18,199.38 82.48,186.00 83.06,184.20 C82.56,185.76 82.24,205.23 82.08,232.40 Z" fill="rgba(80,46,186,1)"/>
<path d="M 371.45 258.13 C371.55,255.19 372.00,254.44 373.79,254.18 C376.64,253.77 376.60,255.50 373.67,258.99 L 371.33 261.76 ZM 321.62 260.20 C321.31,259.69 321.84,258.55 322.81,257.67 C324.43,256.21 324.67,256.24 325.79,258.04 C326.47,259.12 326.60,260.00 326.09,260.00 C325.58,260.00 324.50,260.26 323.68,260.57 C322.87,260.88 321.94,260.72 321.62,260.20 Z" fill="rgba(66,154,171,1)"/>
<path d="M 305.69 375.75 C305.35,369.05 305.40,363.33 305.79,363.04 C306.18,362.74 306.95,361.78 307.50,360.90 C308.71,358.97 315.71,350.08 326.50,336.76 C330.90,331.33 337.51,322.98 341.19,318.19 C351.08,305.35 352.89,303.18 359.75,295.94 C363.19,292.31 366.00,289.07 366.00,288.74 C366.00,288.42 365.37,288.00 364.60,287.82 C363.78,287.63 370.16,280.38 380.14,270.16 C382.78,267.46 385.10,265.11 387.12,263.11 C383.36,267.07 380.08,271.22 380.05,272.64 C379.95,276.92 370.76,289.32 354.57,307.00 C345.97,316.39 338.50,326.20 335.42,332.15 C333.56,335.75 334.24,340.23 336.51,339.36 C337.33,339.04 338.00,339.30 338.00,339.92 C338.00,340.70 340.09,340.89 344.75,340.54 C348.46,340.26 355.04,339.79 359.36,339.49 C363.68,339.20 367.99,338.54 368.94,338.03 C369.90,337.52 371.65,337.36 372.84,337.67 C376.19,338.54 377.57,336.64 380.43,327.22 C383.09,318.44 385.31,313.30 389.99,305.00 C394.60,296.83 396.81,287.56 397.38,274.04 C397.60,268.94 398.19,265.44 398.87,265.21 C399.41,265.03 399.82,263.37 399.95,261.04 C400.01,265.36 399.91,272.13 399.71,282.77 C399.22,308.82 398.21,320.81 395.40,334.33 C395.07,335.89 392.90,339.04 390.56,341.33 C387.93,343.91 384.69,348.92 382.02,354.50 C377.45,364.08 373.69,369.00 370.94,369.00 C370.01,369.00 368.75,369.60 368.13,370.34 C367.52,371.07 365.11,372.25 362.76,372.95 C358.44,374.25 357.27,374.51 351.00,375.55 C349.08,375.88 342.88,377.04 337.24,378.13 C331.60,379.23 326.08,379.84 324.98,379.49 C322.99,378.86 314.26,382.47 308.90,386.14 L 306.30 387.92 ZM 243.00 355.06 C243.00,336.89 243.38,324.00 243.92,324.00 C244.42,324.00 246.88,324.88 249.38,325.95 C253.44,327.69 254.26,328.63 256.94,334.53 C260.36,342.08 265.27,349.22 272.06,356.56 C276.95,361.83 279.28,365.65 280.36,370.17 C280.90,372.42 280.28,373.52 276.31,377.32 C272.32,381.15 270.86,381.89 266.56,382.32 C260.37,382.94 250.29,382.52 247.25,381.51 C245.40,380.90 245.00,381.14 245.00,382.82 C245.00,383.96 244.55,385.16 244.00,385.50 C243.34,385.91 243.00,375.51 243.00,355.06 ZM 91.75 428.56 C90.24,427.77 89.00,427.39 89.00,427.71 C89.00,429.15 84.72,424.26 83.57,421.52 C82.26,418.36 81.64,292.51 82.13,225.35 C82.10,241.74 82.16,263.83 82.28,293.00 C82.53,350.48 82.92,398.17 83.14,399.00 C83.37,399.83 83.91,401.07 84.35,401.77 C85.26,403.22 87.00,402.48 87.00,400.64 C87.00,399.96 88.80,396.62 91.01,393.23 C94.67,387.60 98.34,384.25 100.25,384.79 C100.66,384.90 101.00,384.16 101.00,383.12 C101.00,382.09 101.68,380.68 102.50,380.00 C103.81,378.91 104.00,367.32 104.00,286.83 L 104.00 301.50 C104.00,395.10 104.19,408.46 105.53,411.05 C106.36,412.67 107.73,414.00 108.56,414.00 C109.39,414.00 110.31,414.63 110.60,415.41 C110.90,416.18 113.36,417.77 116.07,418.94 C120.81,420.98 122.55,423.00 119.57,423.00 C118.78,423.00 117.09,423.40 115.82,423.88 C112.63,425.09 112.40,425.16 104.50,427.06 C100.65,427.99 96.82,429.03 96.00,429.37 C95.18,429.72 93.26,429.35 91.75,428.56 ZM 279.00 275.54 C277.91,274.99 276.79,274.44 275.65,273.90 C275.95,273.94 276.24,273.97 276.50,273.97 C278.16,273.97 278.24,273.80 277.00,273.00 C276.17,272.47 274.60,272.03 273.50,272.03 C272.52,272.03 272.09,272.09 272.16,272.30 C271.30,271.92 270.44,271.55 269.58,271.19 C271.27,271.73 273.13,271.02 272.44,269.90 C272.13,269.40 273.82,268.99 276.19,268.97 C278.61,268.95 282.57,267.92 285.21,266.63 C288.47,265.03 290.24,264.64 290.96,265.36 C291.67,266.07 291.99,258.40 292.00,240.48 C292.00,240.99 292.00,241.51 292.00,242.04 L 292.00 271.63 L 289.20 274.31 C286.17,277.21 283.02,277.59 279.00,275.54 ZM 305.02 218.55 C305.58,225.07 305.75,233.17 305.46,242.00 C305.24,248.88 305.31,253.71 305.60,252.75 C305.90,251.79 306.56,251.00 307.07,251.00 C307.58,251.00 308.00,250.32 308.00,249.50 C308.00,247.32 310.68,247.66 311.27,249.92 C311.48,250.73 311.36,251.74 311.01,252.46 C304.72,257.82 304.66,254.75 305.29,241.51 C305.69,233.15 305.57,225.12 305.02,218.55 ZM 353.52 299.03 C353.04,298.26 353.92,296.61 355.83,294.71 C358.20,292.34 358.79,292.07 358.40,293.56 C357.52,296.93 354.39,300.43 353.52,299.03 ZM 392.81 257.63 C396.24,254.48 398.06,253.19 398.67,253.43 C399.00,253.55 399.26,253.82 399.46,254.50 C399.07,254.19 398.40,254.35 397.25,254.63 C396.32,254.86 394.70,256.01 392.81,257.63 ZM 315.16 248.63 C316.32,247.50 317.65,246.20 319.09,244.79 C327.71,236.35 338.14,227.13 348.91,218.30 C338.06,227.22 327.44,236.65 318.31,245.57 C317.16,246.69 316.12,247.71 315.16,248.63 ZM 269.00 270.94 C264.85,269.21 260.68,267.69 256.95,266.53 C261.67,267.96 266.90,269.84 269.00,270.94 ZM 82.98 184.60 C83.01,184.41 83.03,184.28 83.06,184.20 C83.57,182.60 84.42,181.00 85.55,179.45 C84.38,181.08 83.51,182.78 83.01,184.50 C83.00,184.53 82.99,184.56 82.98,184.60 Z" fill="rgba(97,59,196,1)"/>
<path d="M 338.00 339.92 C338.00,339.30 337.33,339.04 336.51,339.36 C334.24,340.23 333.56,335.75 335.42,332.15 C338.50,326.20 345.97,316.39 354.57,307.00 C370.76,289.32 379.95,276.92 380.05,272.64 C380.11,269.74 393.72,255.49 397.25,254.63 C399.99,253.96 400.00,253.97 400.00,259.40 C400.00,262.55 399.53,264.99 398.87,265.21 C398.19,265.44 397.60,268.94 397.38,274.04 C396.81,287.56 394.60,296.83 389.99,305.00 C385.31,313.30 383.09,318.44 380.43,327.22 C377.57,336.64 376.19,338.54 372.84,337.67 C371.65,337.36 369.90,337.52 368.94,338.03 C367.99,338.54 363.68,339.20 359.36,339.49 C355.04,339.79 348.46,340.26 344.75,340.54 C340.09,340.89 338.00,340.70 338.00,339.92 ZM 303.05 206.54 C304.00,209.13 304.63,212.08 304.98,215.44 C305.40,219.35 305.79,220.87 305.86,218.86 C306.01,215.01 307.93,213.33 309.93,215.33 C311.42,216.83 322.93,217.42 339.85,216.89 C342.84,216.79 345.50,217.20 345.88,217.81 C346.66,219.07 347.87,218.60 357.80,211.16 C343.99,222.02 330.07,234.04 319.09,244.79 C314.21,249.57 310.58,253.09 310.57,253.08 C310.57,253.07 310.59,253.05 310.63,253.00 C311.26,252.36 311.54,250.97 311.27,249.92 C310.68,247.66 308.00,247.32 308.00,249.50 C308.00,250.32 307.58,251.00 307.07,251.00 C306.56,251.00 305.90,251.79 305.60,252.75 C305.31,253.71 305.24,248.88 305.46,242.00 C305.97,226.24 305.03,212.82 303.05,206.54 ZM 269.00 270.95 C265.96,269.35 256.35,266.12 251.21,264.97 C248.52,264.36 246.70,264.07 245.49,263.05 C244.67,262.37 244.12,261.38 243.75,259.76 C244.02,259.93 244.39,259.51 244.88,258.90 C246.42,256.99 247.15,256.76 249.01,257.59 C250.45,258.24 253.11,258.27 256.38,257.70 C259.20,257.20 262.40,256.63 263.50,256.44 C264.60,256.24 267.52,254.24 270.00,251.98 C272.48,249.72 275.70,247.63 277.16,247.33 C279.81,246.79 289.00,238.72 289.00,236.93 C289.00,236.42 289.67,236.00 290.50,236.00 C291.52,236.00 291.87,234.68 291.97,228.86 C291.99,231.87 292.00,235.36 292.00,239.42 C292.00,258.10 291.68,266.08 290.96,265.36 C290.24,264.64 288.47,265.03 285.21,266.63 C282.57,267.92 278.61,268.95 276.19,268.97 C273.82,268.99 272.13,269.40 272.44,269.90 C273.21,271.15 270.80,271.89 269.00,270.95 ZM 273.00 273.00 C271.76,272.20 271.84,272.03 273.50,272.03 C274.60,272.03 276.17,272.47 277.00,273.00 C278.24,273.80 278.16,273.97 276.50,273.97 C275.40,273.97 273.83,273.53 273.00,273.00 ZM 290.90 211.09 C290.78,210.89 290.65,210.71 290.50,210.54 C289.23,209.06 286.92,208.49 282.76,208.26 C288.90,208.46 289.56,208.96 290.51,210.31 C290.65,210.52 290.78,210.77 290.90,211.09 ZM 296.05 196.94 C298.27,198.59 300.05,200.59 301.42,203.00 C299.97,200.58 298.22,198.58 296.05,196.94 ZM 243.00 236.18 C243.00,240.98 243.00,244.86 243.02,247.98 C242.99,244.77 243.00,240.88 243.00,236.18 Z" fill="rgba(120,79,203,1)"/>
<path d="M 153.20 190.00 C203.31,190.00 238.93,188.59 243.37,186.43 C244.95,185.66 246.61,185.26 247.05,185.53 C247.50,185.81 248.14,185.58 248.49,185.02 C248.84,184.46 248.61,184.00 248.00,184.00 C247.39,184.00 247.14,183.58 247.46,183.07 C247.77,182.56 247.59,181.87 247.06,181.54 C246.53,181.21 246.29,180.39 246.53,179.72 C246.78,179.05 245.21,176.76 243.05,174.63 C239.32,170.97 238.65,170.71 230.31,169.81 C225.46,169.29 194.27,168.81 161.00,168.75 L 113.82 168.66 L 240.00 168.85 C374.85,169.05 385.41,168.64 390.48,173.71 C391.32,174.55 392.01,175.54 393.08,176.70 C395.24,179.04 397.00,181.54 397.00,182.25 C397.00,182.97 392.84,186.24 387.75,189.52 C382.66,192.80 372.27,200.22 364.65,205.99 C348.35,218.35 346.82,219.32 345.88,217.81 C345.50,217.20 342.84,216.79 339.85,216.89 C322.93,217.42 311.42,216.83 309.93,215.33 C307.93,213.33 306.01,215.01 305.86,218.86 C305.79,220.87 305.40,219.35 304.98,215.44 C303.37,200.20 296.13,193.39 279.09,191.12 C273.47,190.37 243.86,190.00 189.80,190.00 L 153.20 190.00 ZM 243.00 236.18 C243.00,214.74 243.23,210.92 244.57,209.57 C245.91,208.23 249.33,208.01 267.58,208.09 C282.25,208.15 288.15,207.81 290.50,210.54 C292.34,212.67 292.00,216.68 292.00,224.22 C292.00,234.02 291.75,236.00 290.50,236.00 C289.67,236.00 289.00,236.42 289.00,236.93 C289.00,238.72 279.81,246.79 277.16,247.33 C275.70,247.63 272.48,249.72 270.00,251.98 C267.52,254.24 264.60,256.24 263.50,256.44 C262.40,256.63 259.20,257.20 256.38,257.70 C253.11,258.27 250.45,258.24 249.01,257.59 C247.15,256.76 246.42,256.99 244.88,258.90 C243.03,261.19 243.00,260.83 243.00,236.18 Z" fill="rgba(163,99,218,1)"/>
<path d="M 144.67 157.72 C144.00,157.22 143.19,155.81 141.53,151.59 C142.41,153.30 143.53,154.67 144.42,155.03 C145.57,155.49 146.66,155.90 146.85,155.94 C147.04,155.97 149.51,155.35 152.35,154.55 C157.46,153.12 184.46,150.65 207.50,149.51 C219.74,148.90 223.34,148.67 247.00,146.98 C262.79,145.84 285.82,143.50 294.82,142.11 C301.25,141.12 305.02,139.25 303.05,138.03 C302.37,137.61 302.62,136.67 303.75,135.40 C306.27,132.55 306.27,131.22 303.73,130.43 C302.50,130.04 301.25,129.34 300.94,128.86 C300.63,128.38 297.72,127.30 294.47,126.45 C288.54,124.90 285.00,122.69 285.00,120.53 C285.00,119.89 283.52,118.66 281.71,117.80 C278.76,116.39 274.55,112.92 270.57,108.83 C278.44,116.65 287.91,122.00 296.05,122.78 C306.87,123.82 321.86,119.21 334.34,111.01 C345.04,103.98 345.38,103.45 343.88,96.19 C341.73,85.79 345.60,78.70 354.95,75.90 C360.53,74.22 365.38,75.49 369.90,79.80 C376.78,86.36 377.35,94.89 371.37,101.88 C368.76,104.93 367.03,105.98 363.75,106.49 C361.46,106.84 359.89,106.83 358.57,107.39 C354.70,109.03 352.90,115.55 341.02,150.39 C339.91,153.63 338.51,156.89 337.90,157.63 C336.33,159.51 147.19,159.60 144.67,157.72 ZM 84.35 401.77 C83.91,401.07 83.37,399.83 83.14,399.00 C82.92,398.17 82.53,350.48 82.28,293.00 C81.94,214.79 82.13,187.50 83.01,184.50 C83.81,181.77 85.52,179.09 87.93,176.67 C85.52,179.09 83.81,181.77 83.03,184.50 C81.69,189.16 81.96,297.66 83.31,299.76 C83.96,300.75 84.43,300.71 85.56,299.58 C86.35,298.79 87.00,297.58 87.00,296.89 C87.00,296.20 87.43,294.26 87.97,292.57 C88.50,290.88 89.19,288.21 89.51,286.63 C89.83,285.05 90.36,284.03 90.68,284.35 C91.63,285.30 95.00,283.05 95.00,281.46 C95.00,279.35 96.75,279.66 98.00,282.00 C99.43,284.67 100.22,284.51 101.96,281.24 C103.14,279.02 103.52,270.53 103.96,236.16 L 104.00 232.77 L 104.00 286.83 C104.00,367.32 103.81,378.91 102.50,380.00 C101.68,380.68 101.00,382.09 101.00,383.12 C101.00,384.16 100.66,384.90 100.25,384.79 C98.34,384.25 94.67,387.60 91.01,393.23 C88.80,396.62 87.00,399.96 87.00,400.64 C87.00,402.48 85.26,403.22 84.35,401.77 ZM 107.37 191.54 L 106.45 192.45 L 104.49 194.42 L 104.50 193.82 L 106.86 191.91 C107.03,191.78 107.19,191.65 107.37,191.54 ZM 118.86 106.56 C118.74,106.54 118.62,106.52 118.50,106.50 C115.74,106.03 113.27,104.67 111.29,102.75 C113.34,104.67 115.92,106.04 118.86,106.56 ZM 132.61 126.94 C131.96,125.08 131.27,123.10 130.53,121.00 C129.90,119.19 129.27,117.41 128.70,115.80 C129.10,116.88 129.51,118.01 129.91,119.17 C130.75,121.59 131.67,124.23 132.61,126.94 ZM 121.72 107.08 C120.95,106.92 120.05,106.76 118.98,106.58 C119.12,106.60 119.27,106.62 119.42,106.64 C120.19,106.75 120.98,106.90 121.72,107.08 Z" fill="rgba(140,45,209,1)"/>
<path d="M 83.31 299.76 C81.96,297.66 81.69,189.16 83.03,184.50 C84.48,179.45 89.08,174.56 95.50,171.23 L 100.50 168.63 L 161.00 168.75 C194.27,168.81 225.46,169.29 230.31,169.81 C238.65,170.71 239.32,170.97 243.05,174.63 C245.21,176.76 246.78,179.05 246.53,179.72 C246.29,180.39 246.53,181.21 247.06,181.54 C247.59,181.87 247.77,182.56 247.46,183.07 C247.14,183.58 247.39,184.00 248.00,184.00 C248.61,184.00 248.84,184.46 248.49,185.02 C248.14,185.58 247.50,185.81 247.05,185.53 C246.61,185.26 244.95,185.66 243.37,186.43 C238.93,188.59 203.32,190.00 153.36,190.00 C111.40,190.00 109.10,190.09 106.86,191.91 L 104.50 193.82 L 103.96 236.16 C103.52,270.53 103.14,279.02 101.96,281.24 C100.22,284.51 99.43,284.67 98.00,282.00 C96.75,279.66 95.00,279.35 95.00,281.46 C95.00,283.05 91.63,285.30 90.68,284.35 C90.36,284.03 89.83,285.05 89.51,286.63 C89.19,288.21 88.50,290.88 87.97,292.57 C87.43,294.26 87.00,296.20 87.00,296.89 C87.00,297.58 86.35,298.79 85.56,299.58 C84.43,300.71 83.96,300.75 83.31,299.76 ZM 144.42 155.03 C143.25,154.56 141.66,152.31 140.76,149.85 C138.12,142.63 133.32,129.05 129.91,119.17 C128.14,114.03 126.12,109.26 125.42,108.56 C124.72,107.86 122.02,107.00 119.42,106.64 C110.41,105.41 104.51,96.23 106.94,87.22 C110.74,73.09 131.06,71.10 137.04,84.27 C139.26,89.17 139.46,92.72 137.84,98.15 C136.78,101.68 136.88,102.25 138.97,104.47 C142.79,108.54 154.51,115.91 162.22,119.11 C168.02,121.51 171.53,122.24 179.50,122.70 C189.49,123.27 189.52,123.27 196.66,119.67 C205.20,115.37 214.43,107.10 219.99,98.77 C224.37,92.21 230.81,79.06 232.96,72.28 L 234.30 68.06 L 230.33 64.20 C227.74,61.69 225.90,58.72 225.05,55.69 C223.83,51.32 223.91,50.71 226.35,45.71 C233.28,31.54 251.95,33.19 256.97,48.41 C258.71,53.67 256.73,59.63 251.70,64.27 C247.64,68.03 247.62,68.07 248.94,71.77 C251.65,79.39 258.19,92.52 262.55,99.08 C267.47,106.48 276.53,115.33 281.71,117.80 C283.52,118.66 285.00,119.89 285.00,120.53 C285.00,122.69 288.54,124.90 294.47,126.45 C297.72,127.30 300.63,128.38 300.94,128.86 C301.25,129.34 302.50,130.04 303.73,130.43 C306.27,131.22 306.27,132.55 303.75,135.40 C302.62,136.67 302.37,137.61 303.05,138.03 C305.02,139.25 301.25,141.12 294.82,142.11 C285.82,143.50 262.79,145.84 247.00,146.98 C223.34,148.67 219.74,148.90 207.50,149.51 C184.46,150.65 157.46,153.12 152.35,154.55 C149.51,155.35 147.04,155.97 146.85,155.94 C146.66,155.90 145.57,155.49 144.42,155.03 Z" fill="rgba(182,58,230,1)"/>
</g>
</svg>