<svg xmlns="http://www.w3.org/2000/svg" width="1024" height="1024" viewBox="0 0 1024 1024">
<g>
<path d="M 572.66 587.75 C572.30,568.36 572.00,523.34 572.00,487.70 C572.00,427.28 571.97,419.08 575.46,417.10 C575.94,416.82 576.48,416.67 577.10,416.51 C576.54,416.79 575.94,417.17 575.44,417.57 C574.37,418.44 574.04,418.88 574.71,418.54 C575.53,418.13 575.46,418.82 574.46,420.72 C573.25,423.04 573.04,430.97 573.16,469.00 C573.24,494.02 573.62,512.47 574.00,510.00 C574.38,507.52 574.77,506.54 574.85,507.81 C574.93,509.08 575.42,509.86 575.93,509.54 C576.44,509.23 577.16,509.44 577.52,510.02 C577.88,510.61 579.13,510.78 580.33,510.40 C582.26,509.78 582.34,509.89 581.08,511.40 C579.58,513.21 580.17,513.21 588.25,511.44 C590.03,511.05 591.00,511.25 591.00,512.02 C591.00,513.18 594.22,513.05 604.56,511.45 C608.14,510.90 608.75,511.10 609.74,513.16 C610.61,514.98 610.88,515.11 610.93,513.75 C610.97,512.78 611.78,511.99 612.75,511.99 C613.71,511.98 615.62,511.74 617.00,511.46 L 619.50 510.94 L 617.10 511.99 C613.23,513.69 615.36,514.22 621.65,513.11 C630.46,511.56 641.08,511.06 640.36,512.22 C639.99,512.83 640.56,512.96 641.83,512.55 C646.51,511.07 654.31,511.17 655.87,512.73 C656.80,513.66 657.55,513.85 657.76,513.21 C658.07,512.29 662.83,512.50 663.80,513.47 C663.99,513.66 665.58,513.42 667.33,512.94 C670.30,512.12 670.37,512.16 668.50,513.58 C666.64,514.98 666.80,515.05 670.78,514.55 C674.24,514.11 675.21,514.35 675.78,515.76 C676.31,517.03 676.59,516.58 676.83,514.07 C677.07,511.55 677.40,511.02 678.06,512.07 C678.63,512.96 679.06,505.95 679.20,493.50 L 679.42 473.50 L 680.00 490.00 C680.41,501.68 680.64,494.44 680.79,465.22 C680.83,457.76 680.86,451.49 680.85,446.21 C681.02,459.90 681.00,480.16 681.00,510.34 L 681.00 596.74 L 669.25 599.84 C662.79,601.54 645.12,605.92 630.00,609.56 C614.88,613.21 596.30,617.72 588.72,619.59 C581.15,621.47 574.58,623.00 574.14,623.00 C573.69,623.00 573.03,607.14 572.66,587.75 ZM 613.50 834.78 C609.65,833.65 605.08,832.11 603.35,831.36 C601.62,830.61 599.12,830.00 597.80,830.00 C596.48,830.00 594.96,829.56 594.42,829.02 C593.88,828.48 588.10,826.68 581.57,825.02 C575.04,823.36 569.21,821.60 568.60,821.12 C568.00,820.63 563.63,819.29 558.90,818.14 C554.17,816.98 549.00,815.36 547.40,814.53 C545.81,813.69 543.44,813.01 542.15,813.01 C540.86,813.00 538.38,812.33 536.65,811.52 C532.04,809.35 521.95,806.00 520.03,806.00 C517.62,806.00 510.25,802.25 509.75,800.77 C509.40,799.74 511.55,797.81 529.44,679.57 C529.40,679.59 529.37,679.61 529.33,679.63 L 529.27 679.65 L 523.73 682.37 L 497.13 682.11 C482.50,681.98 470.76,682.10 471.05,682.38 C471.52,682.85 489.78,685.34 502.75,686.70 C505.64,687.00 508.00,687.64 508.00,688.12 C508.00,688.61 508.70,689.00 509.56,689.00 C512.45,689.00 510.00,690.85 504.23,693.05 C495.74,696.27 454.20,710.96 449.00,712.58 C443.66,714.24 440.33,714.20 429.00,712.33 C419.69,710.80 398.55,706.50 393.00,705.02 C391.08,704.50 385.23,703.20 380.00,702.13 C374.77,701.05 367.58,699.43 364.00,698.53 C360.42,697.62 353.45,696.01 348.50,694.94 C313.02,687.31 312.69,687.14 328.93,685.06 C333.65,684.45 340.65,683.52 344.50,682.98 C355.94,681.39 366.07,680.15 373.24,679.48 C376.95,679.13 380.27,678.38 380.61,677.81 C381.02,677.16 380.46,677.04 379.08,677.47 C375.85,678.50 365.80,678.25 362.70,677.07 C362.44,676.98 362.03,676.86 361.48,676.73 C356.67,675.57 341.28,673.24 323.50,671.01 C322.06,670.83 320.62,670.64 319.25,670.45 L 693.78 782.83 C693.78,782.84 693.78,782.85 693.79,782.86 C693.92,783.26 693.91,783.53 693.69,783.67 C693.56,783.88 693.34,784.00 693.06,784.00 C692.45,784.00 688.97,787.13 685.33,790.95 C681.70,794.78 678.43,797.82 678.06,797.70 C677.70,797.59 675.92,799.18 674.12,801.22 C672.31,803.27 670.50,804.85 670.08,804.72 C669.66,804.60 668.09,805.95 666.59,807.73 C665.09,809.50 663.50,810.85 663.05,810.73 C662.60,810.60 660.36,812.63 658.05,815.23 C655.75,817.83 653.52,819.85 653.10,819.73 C652.67,819.60 651.08,820.96 649.57,822.75 C648.06,824.54 646.46,825.78 646.02,825.51 C645.58,825.24 644.02,826.60 642.55,828.53 C641.07,830.46 639.50,831.81 639.04,831.53 C638.59,831.25 637.53,832.06 636.70,833.34 C635.00,835.93 634.91,835.96 626.50,836.48 C622.43,836.73 618.25,836.18 613.50,834.78 ZM 439.60 614.33 C439.21,597.92 438.97,565.63 439.06,542.56 L 439.22 500.62 L 441.80 498.04 C439.15,500.70 439.00,501.29 439.44,507.19 C439.71,510.66 439.99,524.53 440.08,538.00 C440.17,551.57 440.58,561.16 441.00,559.50 C441.42,557.85 441.82,556.89 441.88,557.37 C441.95,557.85 442.60,557.75 443.33,557.14 C444.17,556.45 454.93,555.65 471.92,555.02 C486.90,554.47 502.17,553.54 505.83,552.96 C516.47,551.29 518.29,550.94 519.08,550.45 C519.50,550.19 522.46,549.72 525.67,549.40 C528.87,549.08 533.81,548.24 536.63,547.53 C541.28,546.37 541.92,546.42 543.30,548.04 C544.15,549.03 545.04,550.88 545.28,552.17 C545.53,553.45 545.89,546.85 546.08,537.50 L 546.43 520.50 L 547.00 538.00 C547.57,555.44 547.57,555.41 547.77,529.50 C547.80,525.63 547.82,522.28 547.83,519.36 C547.99,528.75 547.98,542.56 547.99,563.12 C547.99,595.92 547.73,624.10 547.40,625.76 C546.89,628.29 546.21,628.87 543.15,629.38 C539.30,630.02 482.60,638.60 463.00,641.50 C456.67,642.43 448.98,643.42 445.90,643.68 L 440.30 644.16 ZM 309.33 649.73 C308.40,648.21 307.52,560.06 308.40,556.53 C308.56,555.91 308.97,555.18 309.54,554.45 C309.50,554.85 309.66,555.59 309.99,556.47 C310.58,558.02 310.57,559.15 309.96,559.52 C309.43,559.85 309.07,562.00 309.15,564.31 C309.26,567.33 309.42,567.73 309.72,565.73 C309.97,564.06 310.57,563.23 311.23,563.64 C313.17,564.84 321.07,565.28 345.00,565.53 C360.10,565.69 368.96,565.41 369.78,564.74 C370.67,564.02 371.83,564.06 373.58,564.85 C376.63,566.24 377.30,566.29 376.54,565.07 C375.93,564.08 378.73,564.24 383.10,565.43 C384.54,565.83 388.10,565.52 391.10,564.75 C396.80,563.28 398.32,563.25 406.75,564.37 L 412.00 565.07 L 412.00 560.66 C412.00,558.00 411.42,555.76 410.53,555.03 C409.72,554.36 409.16,553.31 409.28,552.70 C409.34,552.41 409.26,552.13 409.10,551.91 C409.84,552.48 410.84,553.61 411.71,554.90 L 414.00 558.30 L 414.00 648.69 L 369.25 649.42 C344.64,649.83 321.25,650.33 317.29,650.55 C312.37,650.81 309.84,650.55 309.33,649.73 ZM 704.20 677.80 C703.32,676.92 703.00,668.31 703.00,645.28 L 703.00 613.97 L 706.25 612.51 C708.04,611.71 722.33,606.55 738.00,601.05 C753.67,595.54 775.05,587.97 785.50,584.22 L 804.50 577.39 L 804.76 626.95 C804.90,654.20 804.80,677.06 804.54,677.75 C803.86,679.53 705.98,679.58 704.20,677.80 ZM 481.53 793.34 C477.14,792.55 473.32,791.54 473.03,791.10 C472.74,790.66 470.53,790.00 468.13,789.62 C465.72,789.24 461.81,788.05 459.43,786.97 C457.05,785.89 454.24,785.00 453.17,785.00 C452.10,785.00 449.94,784.33 448.36,783.51 C446.79,782.68 444.29,782.01 442.81,782.01 C441.33,782.00 439.86,781.59 439.55,781.08 C439.24,780.57 434.71,779.19 429.50,778.00 C424.29,776.81 419.76,775.43 419.45,774.92 C419.14,774.41 417.83,774.00 416.56,774.00 C415.28,774.00 412.94,773.33 411.36,772.51 C409.79,771.68 407.67,771.01 406.66,771.01 C404.18,771.00 390.74,766.96 389.55,765.87 C389.03,765.39 387.45,765.00 386.05,764.99 C384.65,764.99 382.15,764.28 380.50,763.42 C378.85,762.56 375.25,761.43 372.50,760.91 C369.75,760.39 367.35,759.52 367.17,758.98 C366.98,758.44 366.20,758.00 365.42,758.00 C365.26,758.00 365.12,758.00 364.99,757.99 C366.44,757.77 372.39,754.81 373.00,753.97 C373.71,752.99 379.78,749.95 380.72,750.11 C382.53,750.41 383.83,749.88 386.04,747.97 C387.33,746.85 388.97,746.16 389.69,746.44 C390.41,746.71 391.00,746.57 391.00,746.13 C391.00,744.98 395.97,742.86 397.07,743.55 C397.58,743.86 398.00,743.72 398.00,743.24 C398.00,742.02 404.93,738.84 406.07,739.54 C406.58,739.86 407.00,739.71 407.00,739.22 C407.00,738.00 411.92,735.83 413.07,736.55 C413.58,736.86 414.00,736.71 414.00,736.22 C414.00,735.05 418.90,732.82 419.99,733.49 C420.45,733.78 421.00,733.51 421.20,732.89 C421.41,732.28 422.86,731.63 424.43,731.46 C426.01,731.29 427.64,730.59 428.05,729.91 C428.47,729.23 429.65,728.61 430.66,728.52 C433.87,728.23 437.00,726.90 437.00,725.83 C437.00,725.25 437.67,725.05 438.50,725.36 C439.33,725.68 440.00,725.58 440.00,725.14 C440.00,724.71 441.57,724.38 443.50,724.42 C445.42,724.47 447.00,724.89 447.00,725.36 C447.00,725.83 448.12,725.93 449.50,725.59 C451.06,725.20 452.00,725.39 452.00,726.09 C452.00,726.71 452.72,726.94 453.59,726.60 C454.47,726.27 456.69,726.71 458.54,727.59 C460.39,728.46 462.37,728.89 462.95,728.53 C463.53,728.17 464.00,728.41 464.00,729.06 C464.00,729.74 464.84,730.01 466.00,729.71 C467.10,729.42 468.00,729.65 468.00,730.21 C468.00,730.77 468.90,731.00 470.00,730.71 C471.10,730.42 472.00,730.64 472.00,731.20 C472.00,731.79 473.06,731.95 474.50,731.59 C476.07,731.20 477.00,731.39 477.00,732.10 C477.00,732.74 477.87,733.01 479.00,732.71 C480.10,732.42 481.00,732.63 481.00,733.16 C481.00,733.70 481.90,733.85 483.00,733.50 C484.23,733.11 485.00,733.32 485.00,734.05 C485.00,734.74 485.83,735.02 487.00,734.71 C488.10,734.42 489.00,734.63 489.00,735.16 C489.00,735.70 489.90,735.85 491.00,735.50 C492.23,735.11 493.00,735.32 493.00,736.05 C493.00,736.74 493.83,737.02 495.00,736.71 C496.10,736.42 497.00,736.65 497.00,737.21 C497.00,737.77 497.90,738.00 499.00,737.71 C500.10,737.42 501.00,737.65 501.00,738.21 C501.00,738.77 501.90,739.00 503.00,738.71 C504.10,738.42 505.00,738.65 505.00,739.21 C505.00,739.77 505.90,740.00 507.00,739.71 C508.10,739.42 509.00,739.64 509.00,740.20 C509.00,740.79 510.06,740.95 511.50,740.59 C513.02,740.21 514.00,740.39 514.00,741.05 C514.00,741.68 514.84,741.87 516.00,741.50 C517.20,741.12 518.00,741.32 518.00,742.00 C518.00,742.68 518.80,742.88 520.00,742.50 C521.22,742.11 522.00,742.32 522.00,743.04 C522.00,743.69 522.67,743.95 523.50,743.64 C524.33,743.32 525.00,743.55 525.00,744.15 C525.00,744.74 525.88,745.00 526.95,744.72 C528.03,744.44 529.04,744.63 529.22,745.15 C529.39,745.67 531.43,746.16 533.76,746.26 C536.09,746.35 538.00,746.83 538.00,747.33 C538.00,747.83 538.90,748.00 540.00,747.71 C541.10,747.42 542.00,747.64 542.00,748.20 C542.00,748.79 543.06,748.95 544.50,748.59 C546.02,748.21 547.00,748.39 547.00,749.05 C547.00,749.68 547.84,749.87 549.00,749.50 C550.23,749.11 551.00,749.32 551.00,750.05 C551.00,750.74 551.83,751.02 553.00,750.71 C554.10,750.42 555.00,750.60 555.00,751.09 C555.00,751.59 555.87,752.00 556.94,752.00 C558.01,752.00 559.13,752.39 559.42,752.88 C560.02,753.84 553.10,759.00 551.20,759.00 C550.54,759.00 550.00,759.39 550.00,759.87 C550.00,760.34 547.86,761.70 545.25,762.88 C539.65,765.42 535.10,768.01 533.21,769.75 C532.47,770.44 531.25,771.00 530.50,771.00 C529.75,771.00 528.45,771.69 527.61,772.54 C526.76,773.38 524.37,774.78 522.29,775.65 C520.20,776.52 518.28,777.52 518.00,777.89 C517.72,778.26 515.59,779.40 513.25,780.43 C510.91,781.46 509.00,782.65 509.00,783.07 C509.00,783.50 507.42,784.36 505.50,785.00 C503.58,785.64 502.00,786.54 502.00,787.00 C502.00,787.46 500.42,788.36 498.50,789.00 C496.58,789.64 495.00,790.49 495.00,790.90 C495.00,791.30 493.54,792.36 491.75,793.25 C490.42,793.91 489.47,794.50 489.24,794.77 C488.04,794.53 484.99,793.97 481.53,793.34 ZM 338.00 750.00 C335.52,749.56 332.15,748.48 330.50,747.60 C328.85,746.73 326.51,746.01 325.31,746.01 C324.10,746.00 320.00,744.88 316.19,743.50 C312.38,742.12 308.30,741.00 307.13,741.00 C305.96,741.00 305.00,740.59 305.00,740.09 C305.00,739.59 303.09,738.86 300.75,738.48 C295.17,737.58 259.78,727.00 258.55,725.87 C258.03,725.39 256.45,725.00 255.05,724.99 C253.65,724.99 251.21,724.32 249.64,723.49 C248.06,722.67 245.72,722.00 244.44,722.00 C243.17,722.00 241.88,721.61 241.58,721.14 C241.29,720.66 239.00,719.70 236.50,719.00 C234.00,718.30 231.69,717.30 231.37,716.79 C230.18,714.86 235.53,711.63 248.82,706.25 C256.35,703.20 263.40,700.14 264.50,699.44 C264.56,699.40 264.64,699.36 264.73,699.31 C264.26,699.70 264.94,699.74 266.29,699.66 C267.78,699.57 269.00,699.21 269.00,698.86 C269.00,697.89 277.01,694.89 277.98,695.49 C278.45,695.78 279.00,695.51 279.20,694.89 C279.41,694.28 280.86,693.63 282.43,693.46 C284.01,693.29 285.63,692.60 286.03,691.94 C286.44,691.28 287.28,691.05 287.89,691.43 C288.50,691.81 289.00,691.73 289.00,691.26 C289.00,690.48 296.16,690.27 298.50,690.99 C299.05,691.16 300.17,691.36 301.00,691.43 C307.13,692.00 313.00,693.36 313.00,694.20 C313.00,694.79 314.06,694.95 315.50,694.59 C317.06,694.20 318.00,694.39 318.00,695.09 C318.00,695.79 318.94,695.98 320.50,695.59 C322.07,695.20 323.00,695.39 323.00,696.10 C323.00,696.77 324.02,697.04 325.47,696.76 C326.82,696.50 328.07,696.71 328.24,697.21 C328.41,697.72 330.67,698.22 333.27,698.32 C335.87,698.42 338.00,698.89 338.00,699.37 C338.00,699.84 338.90,700.00 340.00,699.71 C341.10,699.42 342.00,699.64 342.00,700.20 C342.00,700.79 343.06,700.95 344.50,700.59 C346.06,700.20 347.00,700.39 347.00,701.09 C347.00,701.78 347.93,701.98 349.42,701.61 C350.83,701.26 351.99,701.47 352.21,702.12 C352.41,702.74 354.48,703.30 356.79,703.36 C359.11,703.42 361.00,703.86 361.00,704.34 C361.00,704.82 362.09,704.94 363.42,704.61 C364.83,704.26 365.99,704.47 366.21,705.12 C366.41,705.74 368.48,706.30 370.79,706.36 C373.11,706.42 375.00,706.86 375.00,707.35 C375.00,707.84 375.90,708.00 377.00,707.71 C378.10,707.42 379.00,707.65 379.00,708.21 C379.00,708.77 380.12,709.02 381.50,708.76 C382.88,708.49 384.00,708.72 384.00,709.26 C384.00,709.79 385.12,710.02 386.50,709.76 C387.88,709.49 389.00,709.72 389.00,710.26 C389.00,710.79 389.90,711.00 391.00,710.71 C392.10,710.42 393.00,710.65 393.00,711.21 C393.00,711.77 393.90,712.00 395.00,711.71 C396.10,711.42 397.00,711.65 397.00,712.22 C397.00,712.83 398.22,713.01 400.00,712.65 C401.87,712.28 403.00,712.46 403.00,713.14 C403.00,713.74 403.90,714.00 405.00,713.71 C406.10,713.42 407.00,713.64 407.00,714.20 C407.00,714.79 408.06,714.95 409.50,714.59 C411.07,714.20 412.00,714.39 412.00,715.10 C412.00,715.74 412.87,716.01 414.00,715.71 C415.10,715.42 416.00,715.64 416.00,716.20 C416.00,716.79 417.06,716.95 418.50,716.59 C419.94,716.23 421.00,716.39 421.00,716.98 C421.00,717.54 421.67,718.00 422.50,718.00 C425.35,718.00 423.99,719.85 420.25,721.04 C418.19,721.70 414.92,722.90 413.00,723.72 C411.08,724.54 408.38,725.67 407.00,726.24 C402.12,728.27 398.42,729.88 392.00,732.75 C388.42,734.36 381.23,737.37 376.00,739.45 C370.77,741.52 365.60,743.58 364.50,744.02 C363.40,744.46 360.45,745.76 357.93,746.91 C355.42,748.06 352.84,749.00 352.18,749.00 C351.53,749.00 351.00,749.45 351.00,750.00 C351.00,750.02 351.00,750.05 351.00,750.07 C345.75,751.26 342.79,750.85 338.00,750.00 ZM 707.32 772.48 C706.65,772.17 704.19,771.60 699.50,770.60 C695.65,769.77 690.47,768.59 688.00,767.97 C685.53,767.34 678.33,765.72 672.00,764.36 C665.67,763.00 658.92,761.49 657.00,761.01 C655.08,760.53 648.33,758.99 642.00,757.59 C635.67,756.19 627.58,754.35 624.00,753.50 C615.29,751.41 608.30,749.97 603.74,749.32 C600.01,748.79 597.46,747.00 600.44,747.00 C601.30,747.00 602.00,746.55 602.00,746.00 C602.00,745.45 602.67,745.00 603.50,745.00 C604.33,745.00 605.00,744.55 605.00,744.00 C605.00,743.45 605.91,743.00 607.03,743.00 C608.15,743.00 609.32,742.33 609.64,741.50 C609.95,740.67 610.84,740.00 611.61,740.00 C612.37,740.00 613.00,739.56 613.00,739.02 C613.00,738.48 614.12,737.76 615.50,737.41 C616.88,737.07 618.00,736.38 618.00,735.89 C618.00,735.40 618.67,735.00 619.50,735.00 C620.33,735.00 621.00,734.58 621.00,734.07 C621.00,733.55 621.99,732.82 623.20,732.44 C624.42,732.05 626.02,731.12 626.77,730.37 C627.53,729.62 628.79,729.00 629.57,729.00 C630.36,729.00 631.00,728.55 631.00,728.00 C631.00,727.45 631.67,727.00 632.50,727.00 C633.33,727.00 634.00,726.56 634.00,726.02 C634.00,725.48 635.12,724.76 636.50,724.41 C637.88,724.07 639.00,723.38 639.00,722.89 C639.00,722.40 639.91,722.00 641.03,722.00 C642.15,722.00 643.32,721.33 643.64,720.50 C643.95,719.67 645.08,719.00 646.14,719.00 C647.20,719.00 648.32,718.33 648.64,717.50 C648.95,716.67 649.84,716.00 650.61,716.00 C651.37,716.00 652.00,715.61 652.00,715.12 C652.00,714.64 653.46,713.89 655.25,713.45 C660.01,712.27 669.00,712.17 669.00,713.29 C669.00,713.84 670.50,714.02 672.44,713.70 C674.33,713.40 676.03,713.58 676.20,714.10 C676.38,714.63 680.45,715.16 685.26,715.28 C690.06,715.40 694.00,715.90 694.00,716.38 C694.00,716.86 695.80,716.97 698.00,716.62 C700.20,716.26 702.00,716.35 702.00,716.81 C702.00,717.93 721.90,720.15 724.85,719.35 C726.15,719.00 727.50,719.17 727.85,719.73 C728.55,720.83 752.74,724.00 760.41,724.00 C761.88,724.00 762.96,723.95 763.67,723.86 C761.12,727.02 752.16,735.50 751.09,735.50 C750.74,735.50 748.71,737.42 746.58,739.78 C744.46,742.13 742.52,743.85 742.28,743.61 C742.04,743.37 740.25,744.93 738.31,747.08 C736.37,749.23 734.45,750.78 734.03,750.52 C733.62,750.27 731.84,751.85 730.08,754.05 C728.32,756.24 726.53,757.83 726.11,757.57 C725.69,757.31 723.66,759.11 721.61,761.57 C719.55,764.03 717.50,765.81 717.04,765.53 C716.59,765.25 715.47,766.15 714.57,767.54 C713.66,768.93 712.54,769.84 712.09,769.56 C711.64,769.28 710.46,769.94 709.48,771.02 C708.87,771.70 708.22,772.19 707.32,772.48 ZM 678.60 680.54 C676.35,680.07 645.76,679.06 601.77,678.01 C581.56,677.53 564.69,676.94 564.27,676.69 C563.85,676.44 562.38,676.66 561.00,677.18 C560.96,677.20 560.93,677.21 560.89,677.22 C561.10,677.12 561.34,677.00 561.60,676.88 C565.13,675.20 571.00,664.28 571.00,659.40 C571.00,657.60 571.45,655.84 572.00,655.50 C572.60,655.13 572.75,652.76 572.39,649.66 L 571.78 644.44 L 582.14 642.14 C612.17,635.47 638.79,629.27 658.22,624.42 C670.16,621.44 680.17,619.00 680.47,619.00 C680.76,619.00 681.00,632.69 681.00,649.43 C681.00,677.54 680.87,679.91 679.25,680.42 C679.13,680.46 678.91,680.50 678.60,680.54 ZM 583.32 740.85 C580.73,742.21 572.74,742.22 568.50,740.87 C566.85,740.35 563.47,739.51 561.00,739.02 C558.53,738.52 553.35,737.39 549.50,736.51 C545.65,735.63 540.70,734.51 538.50,734.01 C536.30,733.51 532.70,732.69 530.50,732.17 C528.30,731.65 523.12,730.46 519.00,729.51 C514.88,728.57 509.25,727.17 506.50,726.39 C503.75,725.62 495.88,723.85 489.00,722.46 C471.49,718.92 469.79,718.51 467.25,717.14 C464.90,715.88 464.08,713.53 466.24,714.25 C466.92,714.47 468.11,714.04 468.87,713.27 C469.63,712.51 470.87,712.12 471.63,712.41 C472.38,712.70 473.00,712.45 473.00,711.86 C473.00,711.27 473.66,711.04 474.47,711.35 C475.28,711.66 476.63,711.23 477.46,710.39 C478.30,709.56 479.44,709.15 479.99,709.50 C480.55,709.84 481.00,709.59 481.00,708.95 C481.00,708.31 481.66,708.04 482.47,708.35 C483.28,708.66 484.63,708.23 485.46,707.39 C486.30,706.56 487.44,706.15 487.99,706.50 C488.55,706.84 489.00,706.60 489.00,705.98 C489.00,705.35 489.56,705.02 490.24,705.25 C490.92,705.47 492.11,705.04 492.87,704.27 C493.63,703.51 494.87,703.12 495.63,703.41 C496.38,703.70 497.00,703.46 497.00,702.89 C497.00,702.31 497.56,702.02 498.24,702.25 C498.92,702.47 500.11,702.04 500.87,701.27 C501.63,700.51 502.87,700.12 503.63,700.41 C504.38,700.70 505.00,700.45 505.00,699.86 C505.00,699.27 505.67,699.05 506.50,699.36 C507.33,699.68 508.00,699.46 508.00,698.89 C508.00,698.31 508.56,698.02 509.24,698.25 C509.92,698.47 511.11,698.04 511.87,697.27 C512.63,696.51 513.87,696.12 514.63,696.41 C515.38,696.70 516.00,696.45 516.00,695.86 C516.00,695.27 516.67,695.05 517.50,695.36 C518.33,695.68 519.00,695.61 519.00,695.22 C519.00,694.82 521.03,694.50 523.50,694.50 C525.97,694.50 528.00,694.90 528.00,695.38 C528.00,695.86 529.80,695.97 532.00,695.62 C534.70,695.18 536.00,695.35 536.00,696.12 C536.00,696.89 537.30,697.05 540.00,696.62 C542.61,696.20 544.00,696.35 544.00,697.07 C544.00,697.76 545.10,697.92 547.00,697.50 C549.04,697.05 550.00,697.23 550.00,698.05 C550.00,698.90 551.19,699.07 554.00,698.62 C556.67,698.19 558.00,698.35 558.00,699.10 C558.00,699.84 559.19,700.00 561.50,699.57 C563.86,699.12 565.00,699.29 565.00,700.07 C565.00,700.85 566.14,701.01 568.50,700.57 C570.88,700.12 572.00,700.28 572.00,701.08 C572.00,701.89 573.24,702.06 576.00,701.62 C578.67,701.19 580.00,701.35 580.00,702.10 C580.00,702.84 581.19,703.00 583.50,702.57 C585.83,702.13 587.00,702.29 587.00,703.04 C587.00,703.81 588.29,703.96 591.00,703.50 C593.82,703.02 595.00,703.18 595.00,704.02 C595.00,704.85 596.08,705.02 598.50,704.57 C600.89,704.12 602.00,704.28 602.00,705.09 C602.00,705.87 603.16,706.07 605.50,705.69 C607.66,705.34 609.00,705.53 609.00,706.19 C609.00,706.87 610.44,707.03 613.00,706.62 C615.70,706.18 617.00,706.35 617.00,707.12 C617.00,707.89 618.30,708.05 621.00,707.62 C623.67,707.19 625.00,707.35 625.00,708.10 C625.00,708.84 626.19,709.00 628.50,708.57 C630.69,708.16 632.00,708.30 632.00,708.95 C632.00,709.53 632.67,710.00 633.50,710.00 C634.33,710.00 635.00,710.45 635.00,711.00 C635.00,711.55 634.39,712.00 633.65,712.00 C632.91,712.00 631.27,712.90 630.00,714.00 C628.73,715.10 627.09,716.00 626.35,716.00 C625.61,716.00 625.00,716.39 625.00,716.87 C625.00,717.34 622.86,718.71 620.25,719.90 C617.64,721.09 613.70,723.17 611.50,724.53 C609.30,725.88 606.15,727.69 604.50,728.56 C602.85,729.43 599.70,731.23 597.50,732.56 C595.30,733.89 591.92,735.71 590.00,736.61 C588.08,737.50 586.28,738.56 586.00,738.96 C585.72,739.37 584.52,740.22 583.32,740.85 ZM 447.55 710.16 C445.90,711.62 432.93,710.42 425.90,708.16 C424.03,707.56 419.80,706.61 416.50,706.04 C407.72,704.54 398.05,702.58 384.50,699.56 C377.90,698.09 368.90,696.23 364.50,695.43 C360.10,694.63 355.15,693.55 353.50,693.04 C351.85,692.53 348.02,691.67 345.00,691.13 C341.98,690.59 338.15,689.59 336.50,688.91 L 333.50 687.67 L 338.00 686.91 C340.48,686.49 344.41,686.11 346.75,686.07 C349.11,686.03 351.00,685.51 351.00,684.91 C351.00,684.17 352.63,684.04 356.00,684.50 C359.45,684.97 361.00,684.84 361.00,684.06 C361.00,683.28 362.56,683.14 366.00,683.59 C369.68,684.08 371.00,683.93 371.00,683.01 C371.00,682.07 372.61,681.94 377.50,682.46 C382.14,682.96 384.00,682.83 384.00,682.01 C384.00,681.20 385.62,681.06 389.50,681.54 C393.17,682.00 395.00,681.87 395.00,681.16 C395.00,680.47 397.87,680.15 403.00,680.26 C407.40,680.35 411.00,680.83 411.00,681.33 C411.00,681.84 413.40,681.93 416.50,681.54 C420.50,681.04 422.00,681.18 422.00,682.06 C422.00,682.93 423.62,683.08 428.00,682.58 C432.35,682.09 434.00,682.23 434.00,683.09 C434.00,683.93 435.47,684.10 439.00,683.69 C442.28,683.30 444.00,683.47 444.00,684.18 C444.00,684.90 445.67,685.04 449.00,684.59 C452.54,684.13 454.00,684.27 454.00,685.11 C454.00,685.93 455.62,686.11 459.44,685.72 C462.83,685.37 465.02,685.55 465.23,686.20 C465.44,686.83 469.82,687.28 476.29,687.33 C482.18,687.38 487.00,687.83 487.00,688.34 C487.00,688.86 489.14,688.97 492.00,688.59 C495.21,688.17 497.00,688.30 497.00,688.97 C497.00,689.53 497.73,690.00 498.62,690.00 C502.75,690.00 497.15,693.04 486.72,696.45 C480.55,698.47 474.15,700.72 472.50,701.44 C470.85,702.16 464.77,704.23 459.00,706.04 C453.23,707.84 448.07,709.70 447.55,710.16 ZM 429.75 663.26 C431.41,662.96 433.19,662.77 435.25,662.64 C439.46,662.38 443.32,661.92 443.83,661.61 C444.33,661.30 447.95,660.92 451.86,660.77 C455.78,660.62 458.99,660.13 458.99,659.67 C459.00,659.22 460.69,658.94 462.75,659.06 C464.81,659.17 467.17,658.99 468.00,658.66 C468.83,658.33 472.42,657.93 476.00,657.78 C479.58,657.62 482.73,657.19 483.02,656.82 C483.30,656.45 487.12,655.92 491.52,655.66 C495.91,655.39 500.29,654.86 501.25,654.48 C502.22,654.10 504.09,654.06 505.42,654.39 C506.75,654.72 507.99,654.54 508.17,653.98 C508.36,653.43 511.77,652.86 515.75,652.73 C519.72,652.61 522.98,652.13 522.99,651.67 C523.00,651.22 524.70,650.97 526.78,651.12 C528.86,651.27 531.06,651.08 531.68,650.70 C532.29,650.32 533.86,650.00 535.15,650.00 C536.44,650.00 539.70,649.77 542.39,649.51 L 547.28 649.02 L 546.72 654.44 C546.24,659.12 544.78,663.52 542.51,667.39 C542.50,667.27 542.46,667.17 542.38,667.10 C542.02,666.77 541.50,667.15 541.22,667.94 C540.93,668.74 539.69,670.31 538.45,671.44 C529.85,679.28 529.48,679.35 500.00,678.70 C474.75,678.15 443.63,676.66 424.69,675.09 C414.77,674.26 411.07,672.84 414.01,670.97 C414.83,670.45 416.03,670.21 416.67,670.45 C417.31,670.68 418.84,670.00 420.07,668.94 C421.30,667.87 423.15,667.00 424.18,667.00 C425.22,667.00 426.33,666.30 426.66,665.44 C426.99,664.59 427.88,664.12 428.63,664.41 C429.38,664.70 430.00,664.50 430.00,663.97 C430.00,663.65 429.93,663.41 429.75,663.26 ZM 712.72 249.91 C708.02,248.80 703.54,246.61 699.79,243.68 C699.50,243.20 698.68,242.23 697.62,241.12 L 694.87 238.25 L 697.38 238.25 C704.06,238.25 711.97,229.26 714.04,219.33 C715.50,212.27 714.30,205.52 710.09,197.18 C708.44,193.91 707.41,190.91 707.80,190.50 C708.18,190.09 706.70,190.67 704.50,191.79 C702.30,192.90 699.19,195.19 697.60,196.87 C696.07,198.48 694.39,199.56 693.77,199.35 C694.63,198.24 695.84,196.89 697.23,195.54 C710.08,183.10 729.77,182.54 742.59,194.25 C749.96,200.99 753.15,207.81 753.32,217.20 C753.51,227.78 751.07,234.09 744.08,241.08 C735.39,249.77 724.79,252.75 712.72,249.91 ZM 772.54 716.48 C772.23,716.29 771.56,715.99 770.50,715.53 C768.85,714.81 758.72,713.26 748.00,712.09 C714.69,708.43 677.56,703.99 676.25,703.52 C674.55,702.90 674.66,701.00 676.39,701.00 C677.16,701.00 678.05,700.33 678.36,699.50 C678.68,698.67 679.63,698.00 680.47,698.00 C681.31,698.00 682.00,697.63 682.00,697.17 C682.00,696.71 683.24,695.70 684.75,694.92 C686.26,694.14 687.80,693.09 688.17,692.58 C688.53,692.07 693.82,691.76 699.92,691.89 C707.24,692.05 711.00,691.77 711.00,691.07 C711.00,690.62 709.41,690.30 706.42,690.14 C714.91,690.03 727.15,690.00 744.95,690.00 C783.09,690.00 800.00,690.33 800.00,691.06 C800.00,692.34 787.62,705.00 786.37,705.00 C785.89,705.00 784.24,706.58 782.71,708.50 C781.17,710.42 779.51,712.00 779.01,712.00 C778.51,712.00 776.89,713.12 775.41,714.50 C774.66,715.19 774.14,715.71 773.54,716.07 C773.24,716.24 772.92,716.38 772.54,716.48 ZM 656.47 698.80 C650.87,701.52 647.45,701.49 622.50,698.46 C574.29,692.61 561.65,690.89 560.71,690.04 C560.28,689.64 572.65,689.02 588.21,688.65 C607.67,688.19 616.60,688.31 616.85,689.04 C617.09,689.76 624.38,689.87 640.10,689.39 C657.14,688.87 663.00,688.99 663.00,689.85 C663.00,690.48 663.97,691.00 665.15,691.00 C667.25,691.00 667.26,691.06 665.50,693.00 C664.50,694.10 663.08,695.00 662.35,695.00 C661.61,695.00 661.00,695.36 661.00,695.80 C661.00,696.24 658.96,697.59 656.47,698.80 ZM 703.00 453.65 C703.00,383.50 703.18,342.12 703.59,324.77 C703.22,341.45 703.10,380.39 703.21,446.40 C703.31,512.32 703.63,561.71 703.94,561.71 C703.96,561.71 703.98,561.48 704.00,561.00 C704.48,550.03 704.63,549.05 704.79,555.81 C704.92,561.05 705.37,563.89 706.00,563.50 C706.55,563.16 707.00,563.81 707.00,564.94 C707.00,566.33 707.65,567.00 709.00,567.00 C710.10,567.00 711.00,567.49 711.00,568.09 C711.00,568.79 712.53,569.01 715.20,568.70 C719.99,568.15 722.28,568.73 721.34,570.26 C720.96,570.88 721.17,571.01 721.86,570.59 C722.50,570.19 724.48,570.61 726.26,571.53 C729.69,573.29 737.46,574.55 736.63,573.22 C736.37,572.78 736.90,572.40 737.82,572.36 C738.75,572.32 740.36,571.92 741.41,571.47 C742.66,570.95 743.10,571.02 742.69,571.69 C741.81,573.12 746.78,572.04 753.36,569.52 C749.49,571.20 746.24,572.71 746.00,573.04 C745.30,574.00 706.28,589.00 704.48,589.00 C703.18,589.00 703.00,572.49 703.00,453.65 ZM 318.02 667.36 C321.05,667.26 324.95,667.20 329.75,667.19 C340.61,667.15 351.52,666.68 354.00,666.14 C354.65,666.00 356.02,665.85 357.93,665.69 L 369.00 665.98 C375.88,666.16 385.44,666.19 390.26,666.04 C397.66,665.82 398.93,666.01 398.45,667.26 C397.94,668.59 391.45,670.87 379.32,673.97 C376.06,674.80 371.20,674.59 357.32,672.99 C336.54,670.61 334.72,670.27 335.52,668.97 C335.85,668.43 334.84,668.00 333.21,668.00 C331.61,668.00 326.08,667.77 320.90,667.49 C319.88,667.44 318.91,667.39 318.02,667.36 ZM 309.77 554.16 C310.48,553.32 311.38,552.52 312.28,551.97 C315.35,550.10 317.53,550.01 360.58,550.00 C385.38,550.00 406.00,550.34 406.42,550.75 C406.60,550.93 406.87,551.10 407.16,551.23 C406.79,551.16 406.46,551.07 406.25,551.01 C405.84,550.87 405.19,550.81 404.81,550.86 C404.44,550.91 384.68,550.99 360.90,551.03 C323.55,551.10 317.19,551.33 314.09,552.71 C312.11,553.59 310.18,554.24 309.78,554.16 L 309.77 554.16 ZM 695.68 239.85 C694.65,238.70 693.73,237.49 692.93,236.22 C691.82,234.48 690.97,232.76 690.67,231.74 C690.86,232.00 691.19,232.24 691.61,232.40 C692.51,232.75 692.96,233.66 692.64,234.50 C692.31,235.35 692.59,235.88 693.29,235.74 C693.95,235.61 694.51,236.26 694.51,237.18 C694.52,237.79 694.99,238.82 695.68,239.85 ZM 312.25 669.33 C309.03,668.55 309.16,668.00 312.89,667.65 C313.49,667.99 313.77,668.56 313.52,668.96 C313.32,669.30 315.71,669.90 319.25,670.45 C315.93,669.99 313.13,669.55 312.25,669.33 ZM 764.24 723.09 C762.80,722.48 758.44,721.64 751.80,720.78 C758.44,721.63 763.91,722.47 764.32,722.71 C764.39,722.76 764.36,722.88 764.24,723.09 ZM 529.44 679.57 C532.37,678.11 536.31,674.94 539.09,672.14 C536.44,675.18 533.18,677.72 529.44,679.57 ZM 578.78 416.00 C579.51,415.70 580.00,415.38 580.00,415.14 C580.00,414.79 600.63,414.34 625.83,414.14 C600.63,414.34 580.00,414.84 580.00,415.25 C580.00,415.64 579.46,415.97 578.78,416.00 ZM 364.17 757.79 C363.31,757.23 365.87,755.47 372.25,752.24 C366.99,755.04 363.84,757.15 364.17,757.79 ZM 559.52 678.52 C560.23,679.05 563.17,679.45 569.13,679.76 C563.87,679.54 560.61,679.32 560.27,679.13 C559.87,678.91 559.61,678.71 559.52,678.52 ZM 397.12 664.11 C405.28,664.01 407.07,664.30 406.79,665.12 C406.78,665.15 406.77,665.18 406.76,665.21 C406.88,664.48 403.78,664.11 397.12,664.11 ZM 362.27 665.37 C367.25,665.05 373.88,664.74 380.75,664.52 C377.77,664.64 374.52,664.78 371.00,664.95 L 362.27 665.37 ZM 692.62 201.08 C692.79,200.74 693.05,200.31 693.40,199.84 C693.40,199.84 693.40,199.84 693.40,199.85 C693.80,200.48 693.61,201.00 693.00,201.00 C692.85,201.00 692.72,201.03 692.62,201.08 ZM 690.00 770.51 C695.59,771.65 701.52,772.60 704.15,772.80 C701.37,772.70 697.10,771.95 690.00,770.51 ZM 688.84 690.96 C687.49,691.39 686.13,692.02 684.49,692.93 C685.57,692.29 686.42,691.80 686.93,691.54 C687.36,691.31 687.94,691.12 688.84,690.96 ZM 647.94 681.66 C648.22,681.88 655.52,681.75 662.95,681.50 C655.49,681.79 648.25,681.93 647.94,681.66 ZM 498.70 790.57 C493.13,793.50 490.04,794.99 489.78,794.89 C489.77,794.89 489.74,794.88 489.70,794.87 C490.80,794.57 493.61,793.23 498.70,790.57 ZM 756.50 715.42 C761.53,715.97 766.51,716.46 769.21,716.68 C766.75,716.56 762.92,716.12 756.50,715.42 ZM 674.91 415.45 C675.77,415.90 676.52,416.22 677.15,416.69 C677.71,417.09 678.19,417.61 678.60,418.42 C677.73,416.97 676.53,416.29 674.91,415.45 ZM 672.92 776.37 C681.94,778.64 688.63,780.57 691.79,781.78 C688.46,780.55 681.28,778.47 672.92,776.37 ZM 750.23 720.58 C735.54,718.77 715.02,716.10 695.50,713.46 C713.61,715.91 734.94,718.69 750.00,720.55 C750.08,720.56 750.15,720.57 750.23,720.58 ZM 273.50 695.34 C274.85,694.77 276.27,694.18 277.71,693.59 C282.80,691.51 286.25,690.28 289.09,689.62 C286.26,690.28 282.81,691.51 277.71,693.61 C276.15,694.25 274.75,694.82 273.50,695.34 ZM 441.82 498.03 L 441.94 497.90 C443.73,496.11 445.44,495.10 451.59,494.57 C445.37,495.12 443.69,496.16 441.82,498.03 ZM 542.68 496.60 C543.47,497.18 544.14,497.65 544.71,498.22 C544.96,498.46 545.19,498.73 545.40,499.03 C544.70,498.14 543.81,497.44 542.68,496.60 ZM 692.00 203.00 C692.62,203.00 692.82,202.51 692.45,201.91 C692.43,201.89 692.43,201.87 692.42,201.85 C692.44,201.90 692.47,201.95 692.50,202.00 C692.84,202.55 692.62,203.00 692.00,203.00 Z" fill="rgba(41,89,138,1)"/>
<path d="M 278.00 510.01 C278.00,509.61 280.81,508.71 284.25,508.02 C293.96,506.06 333.35,496.24 344.70,492.94 C392.91,478.91 440.38,458.04 485.00,431.24 C513.84,413.91 552.32,387.16 576.00,367.99 C605.94,343.74 646.86,305.08 675.21,274.25 C683.43,265.31 690.60,258.00 691.14,258.00 C692.76,258.00 691.31,261.67 683.35,277.75 C671.03,302.62 651.40,330.38 628.74,355.00 C590.87,396.14 535.24,436.62 485.04,459.54 C425.84,486.59 355.50,504.25 282.75,510.36 C280.14,510.58 278.00,510.42 278.00,510.01 ZM 568.00 743.76 C565.53,743.21 554.72,740.75 544.00,738.29 C533.28,735.83 517.97,732.34 510.00,730.53 C484.72,724.78 459.57,718.93 457.64,718.35 C456.03,717.87 455.97,717.60 457.19,716.38 C458.85,714.72 479.41,705.93 489.50,702.56 C493.35,701.28 501.67,698.33 508.00,696.02 C514.33,693.70 520.17,691.75 521.00,691.69 C522.40,691.58 533.96,692.60 542.00,693.53 L 552.75 694.78 C556.74,695.24 560.00,695.25 560.00,694.81 C560.00,694.36 558.76,693.92 557.25,693.83 C551.39,693.46 550.45,693.34 549.00,692.77 C548.17,692.44 545.36,691.59 542.75,690.87 C540.14,690.15 538.00,689.25 538.00,688.86 C538.00,688.02 543.15,686.31 548.00,685.55 C554.35,684.56 673.86,687.46 675.03,688.63 C675.81,689.41 674.76,690.56 671.31,692.70 C668.66,694.34 664.21,697.10 661.41,698.84 C658.61,700.58 655.86,702.00 655.28,702.00 C654.71,702.00 653.65,702.72 652.92,703.59 C651.86,704.87 650.38,705.07 645.55,704.60 C631.34,703.20 623.49,702.98 625.21,704.02 C626.16,704.59 628.63,705.12 630.71,705.19 C632.80,705.27 635.85,705.86 637.50,706.52 C639.15,707.17 641.38,708.02 642.46,708.40 C643.00,708.59 643.47,708.70 643.55,708.93 C643.77,709.62 640.39,711.47 624.50,720.48 C618.45,723.91 608.78,729.42 603.00,732.72 C580.60,745.52 578.66,746.13 568.00,743.76 ZM 440.08 538.00 C439.99,524.53 439.71,510.66 439.44,507.19 C438.99,501.29 439.15,500.70 441.81,498.03 C445.82,494.03 448.94,493.81 497.68,494.18 C538.68,494.49 539.93,494.56 542.68,496.60 C547.83,500.42 547.99,501.45 547.77,529.50 C547.57,555.41 547.57,555.44 547.00,538.00 L 546.43 520.50 L 546.08 537.50 C545.89,546.85 545.53,553.45 545.28,552.17 C545.04,550.88 544.15,549.03 543.30,548.04 C541.92,546.42 541.28,546.37 536.63,547.53 C533.81,548.24 528.87,549.08 525.67,549.40 C522.46,549.72 519.50,550.19 519.08,550.45 C518.29,550.94 516.47,551.29 505.83,552.96 C502.17,553.54 486.90,554.47 471.92,555.02 C454.93,555.65 444.17,556.45 443.33,557.14 C442.60,557.75 441.95,557.85 441.88,557.37 C441.82,556.89 441.42,557.85 441.00,559.50 C440.58,561.16 440.17,551.57 440.08,538.00 ZM 429.00 712.33 C419.69,710.80 398.55,706.50 393.00,705.02 C391.08,704.50 385.23,703.20 380.00,702.13 C374.77,701.05 367.58,699.43 364.00,698.53 C360.42,697.62 353.45,696.01 348.50,694.94 C313.02,687.31 312.69,687.14 328.93,685.06 C333.65,684.45 340.65,683.52 344.50,682.98 C355.94,681.39 366.07,680.15 373.24,679.48 C376.95,679.13 380.27,678.38 380.61,677.81 C381.02,677.16 380.46,677.04 379.08,677.47 C375.85,678.50 365.80,678.25 362.70,677.07 C360.01,676.05 341.54,673.21 322.77,670.94 C317.41,670.29 313.25,669.40 313.52,668.96 C313.70,668.68 313.61,668.30 313.33,667.99 C314.95,668.40 317.84,668.83 321.33,669.08 C325.82,669.40 330.71,669.74 332.19,669.83 C333.67,669.92 335.12,669.62 335.41,669.15 C335.63,668.79 332.81,668.30 328.95,667.87 C330.92,667.95 332.48,668.00 333.21,668.00 C334.84,668.00 335.85,668.43 335.52,668.97 C334.72,670.27 336.54,670.61 357.32,672.99 C371.20,674.59 376.06,674.80 379.32,673.97 C391.45,670.87 397.94,668.59 398.45,667.26 C398.93,666.01 397.66,665.82 390.26,666.04 C385.44,666.19 375.88,666.16 369.00,665.98 L 356.50 665.65 L 371.00 664.95 C396.04,663.74 407.22,663.84 406.75,665.25 C406.52,665.94 405.47,666.66 404.42,666.85 C403.36,667.04 401.60,668.02 400.50,669.03 C399.40,670.03 395.13,671.99 391.02,673.37 C386.91,674.75 383.38,676.47 383.19,677.19 C382.93,678.19 383.07,678.18 383.81,677.13 C384.57,676.04 385.45,675.99 388.22,676.91 C390.35,677.61 394.34,677.80 398.59,677.41 C405.81,676.74 409.87,675.00 404.20,675.00 C399.09,675.00 400.47,673.56 407.75,671.28 C411.46,670.12 417.50,667.78 421.16,666.09 C428.20,662.82 430.00,662.39 430.00,663.97 C430.00,664.50 429.38,664.70 428.63,664.41 C427.88,664.12 426.99,664.59 426.66,665.44 C426.33,666.30 425.22,667.00 424.18,667.00 C423.15,667.00 421.30,667.87 420.07,668.94 C418.84,670.00 417.31,670.68 416.67,670.45 C416.03,670.21 414.83,670.45 414.01,670.97 C411.07,672.84 414.77,674.26 424.69,675.09 C443.63,676.66 474.75,678.15 500.00,678.70 C529.48,679.35 529.85,679.28 538.45,671.44 C539.69,670.31 540.93,668.74 541.22,667.94 C541.50,667.15 542.02,666.77 542.38,667.10 C543.73,668.34 534.72,676.99 529.33,679.63 L 523.73 682.37 L 497.13 682.11 C482.50,681.98 470.76,682.10 471.05,682.38 C471.52,682.85 489.78,685.34 502.75,686.70 C505.64,687.00 508.00,687.64 508.00,688.12 C508.00,688.61 508.70,689.00 509.56,689.00 C512.45,689.00 510.00,690.85 504.23,693.05 C495.74,696.27 454.20,710.96 449.00,712.58 C443.66,714.24 440.33,714.20 429.00,712.33 ZM 583.32 740.85 C584.52,740.22 585.72,739.37 586.00,738.96 C586.28,738.56 588.08,737.50 590.00,736.61 C591.92,735.71 595.30,733.89 597.50,732.56 C599.70,731.23 602.85,729.43 604.50,728.56 C606.15,727.69 609.30,725.88 611.50,724.53 C613.70,723.17 617.64,721.09 620.25,719.90 C622.86,718.71 625.00,717.34 625.00,716.87 C625.00,716.39 625.61,716.00 626.35,716.00 C627.09,716.00 628.73,715.10 630.00,714.00 C631.27,712.90 632.91,712.00 633.65,712.00 C634.39,712.00 635.00,711.55 635.00,711.00 C635.00,710.45 634.33,710.00 633.50,710.00 C632.67,710.00 632.00,709.53 632.00,708.95 C632.00,708.30 630.69,708.16 628.50,708.57 C626.19,709.00 625.00,708.84 625.00,708.10 C625.00,707.35 623.67,707.19 621.00,707.62 C618.30,708.05 617.00,707.89 617.00,707.12 C617.00,706.35 615.70,706.18 613.00,706.62 C610.44,707.03 609.00,706.87 609.00,706.19 C609.00,705.53 607.66,705.34 605.50,705.69 C603.16,706.07 602.00,705.87 602.00,705.09 C602.00,704.28 600.89,704.12 598.50,704.57 C596.08,705.02 595.00,704.85 595.00,704.02 C595.00,703.18 593.82,703.02 591.00,703.50 C588.29,703.96 587.00,703.81 587.00,703.04 C587.00,702.29 585.83,702.13 583.50,702.57 C581.19,703.00 580.00,702.84 580.00,702.10 C580.00,701.35 578.67,701.19 576.00,701.62 C573.24,702.06 572.00,701.89 572.00,701.08 C572.00,700.28 570.88,700.12 568.50,700.57 C566.14,701.01 565.00,700.85 565.00,700.07 C565.00,699.29 563.86,699.12 561.50,699.57 C559.19,700.00 558.00,699.84 558.00,699.10 C558.00,698.35 556.67,698.19 554.00,698.62 C551.19,699.07 550.00,698.90 550.00,698.05 C550.00,697.23 549.04,697.05 547.00,697.50 C545.10,697.92 544.00,697.76 544.00,697.07 C544.00,696.35 542.61,696.20 540.00,696.62 C537.30,697.05 536.00,696.89 536.00,696.12 C536.00,695.35 534.70,695.18 532.00,695.62 C529.80,695.97 528.00,695.86 528.00,695.38 C528.00,694.90 525.97,694.50 523.50,694.50 C521.03,694.50 519.00,694.82 519.00,695.22 C519.00,695.61 518.33,695.68 517.50,695.36 C516.67,695.05 516.00,695.27 516.00,695.86 C516.00,696.45 515.38,696.70 514.63,696.41 C513.87,696.12 512.63,696.51 511.87,697.27 C511.11,698.04 509.92,698.47 509.24,698.25 C508.56,698.02 508.00,698.31 508.00,698.89 C508.00,699.46 507.33,699.68 506.50,699.36 C505.67,699.05 505.00,699.27 505.00,699.86 C505.00,700.45 504.38,700.70 503.63,700.41 C502.87,700.12 501.63,700.51 500.87,701.27 C500.11,702.04 498.92,702.47 498.24,702.25 C497.56,702.02 497.00,702.31 497.00,702.89 C497.00,703.46 496.38,703.70 495.63,703.41 C494.87,703.12 493.63,703.51 492.87,704.27 C492.11,705.04 490.92,705.47 490.24,705.25 C489.56,705.02 489.00,705.35 489.00,705.98 C489.00,706.60 488.55,706.84 487.99,706.50 C487.44,706.15 486.30,706.56 485.46,707.39 C484.63,708.23 483.28,708.66 482.47,708.35 C481.66,708.04 481.00,708.31 481.00,708.95 C481.00,709.59 480.55,709.84 479.99,709.50 C479.44,709.15 478.30,709.56 477.46,710.39 C476.63,711.23 475.28,711.66 474.47,711.35 C473.66,711.04 473.00,711.27 473.00,711.86 C473.00,712.45 472.38,712.70 471.63,712.41 C470.87,712.12 469.63,712.51 468.87,713.27 C468.11,714.04 466.92,714.47 466.24,714.25 C464.08,713.53 464.90,715.88 467.25,717.14 C469.79,718.51 471.49,718.92 489.00,722.46 C495.88,723.85 503.75,725.62 506.50,726.39 C509.25,727.17 514.88,728.57 519.00,729.51 C523.12,730.46 528.30,731.65 530.50,732.17 C532.70,732.69 536.30,733.51 538.50,734.01 C540.70,734.51 545.65,735.63 549.50,736.51 C553.35,737.39 558.53,738.52 561.00,739.02 C563.47,739.51 566.85,740.35 568.50,740.87 C572.74,742.22 580.73,742.21 583.32,740.85 ZM 447.55 710.16 C448.07,709.70 453.23,707.84 459.00,706.04 C464.77,704.23 470.85,702.16 472.50,701.44 C474.15,700.72 480.55,698.47 486.72,696.45 C497.15,693.04 502.75,690.00 498.62,690.00 C497.73,690.00 497.00,689.53 497.00,688.97 C497.00,688.30 495.21,688.17 492.00,688.59 C489.14,688.97 487.00,688.86 487.00,688.34 C487.00,687.83 482.18,687.38 476.29,687.33 C469.82,687.28 465.44,686.83 465.23,686.20 C465.02,685.55 462.83,685.37 459.44,685.72 C455.62,686.11 454.00,685.93 454.00,685.11 C454.00,684.27 452.54,684.13 449.00,684.59 C445.67,685.04 444.00,684.90 444.00,684.18 C444.00,683.47 442.28,683.30 439.00,683.69 C435.47,684.10 434.00,683.93 434.00,683.09 C434.00,682.23 432.35,682.09 428.00,682.58 C423.62,683.08 422.00,682.93 422.00,682.06 C422.00,681.18 420.50,681.04 416.50,681.54 C413.40,681.93 411.00,681.84 411.00,681.33 C411.00,680.83 407.40,680.35 403.00,680.26 C397.87,680.15 395.00,680.47 395.00,681.16 C395.00,681.87 393.17,682.00 389.50,681.54 C385.62,681.06 384.00,681.20 384.00,682.01 C384.00,682.83 382.14,682.96 377.50,682.46 C372.61,681.94 371.00,682.07 371.00,683.01 C371.00,683.93 369.68,684.08 366.00,683.59 C362.56,683.14 361.00,683.28 361.00,684.06 C361.00,684.84 359.45,684.97 356.00,684.50 C352.63,684.04 351.00,684.17 351.00,684.91 C351.00,685.51 349.11,686.03 346.75,686.07 C344.41,686.11 340.48,686.49 338.00,686.91 L 333.50 687.67 L 336.50 688.91 C338.15,689.59 341.98,690.59 345.00,691.13 C348.02,691.67 351.85,692.53 353.50,693.04 C355.15,693.55 360.10,694.63 364.50,695.43 C368.90,696.23 377.90,698.09 384.50,699.56 C398.05,702.58 407.72,704.54 416.50,706.04 C419.80,706.61 424.03,707.56 425.90,708.16 C432.93,710.42 445.90,711.62 447.55,710.16 ZM 309.15 564.31 C309.07,562.00 309.43,559.85 309.96,559.52 C310.57,559.15 310.58,558.02 309.99,556.47 C309.48,555.12 309.38,554.08 309.78,554.16 C310.18,554.24 312.11,553.59 314.09,552.71 C317.19,551.33 323.55,551.10 360.90,551.03 C384.68,550.99 404.44,550.91 404.81,550.86 C405.19,550.81 405.84,550.87 406.25,551.01 C406.66,551.14 407.56,551.33 408.25,551.42 C408.94,551.51 409.40,552.09 409.28,552.70 C409.16,553.31 409.72,554.36 410.53,555.03 C411.42,555.76 412.00,558.00 412.00,560.66 L 412.00 565.07 L 406.75 564.37 C398.32,563.25 396.80,563.28 391.10,564.75 C388.10,565.52 384.54,565.83 383.10,565.43 C378.73,564.24 375.93,564.08 376.54,565.07 C377.30,566.29 376.63,566.24 373.58,564.85 C371.83,564.06 370.67,564.02 369.78,564.74 C368.96,565.41 360.10,565.69 345.00,565.53 C321.07,565.28 313.17,564.84 311.23,563.64 C310.57,563.23 309.97,564.06 309.72,565.73 C309.42,567.73 309.26,567.33 309.15,564.31 ZM 696.94 241.43 C695.61,240.02 694.52,238.11 694.51,237.18 C694.51,236.26 693.95,235.61 693.29,235.74 C692.59,235.88 692.31,235.35 692.64,234.50 C692.96,233.66 692.51,232.75 691.61,232.40 C690.73,232.07 690.26,231.39 690.56,230.90 C690.87,230.40 690.66,230.00 690.09,230.00 C689.53,230.00 689.32,229.32 689.64,228.50 C689.95,227.68 689.74,227.00 689.17,227.00 C688.54,227.00 688.35,225.63 688.69,223.50 C689.04,221.39 688.85,220.00 688.23,220.00 C687.60,220.00 687.38,218.33 687.68,215.75 C688.36,209.96 689.95,205.00 691.14,205.00 C691.68,205.00 691.84,204.55 691.50,204.00 C691.16,203.45 691.39,203.00 692.00,203.00 C692.61,203.00 692.84,202.55 692.50,202.00 C692.16,201.45 692.39,201.00 693.00,201.00 C693.61,201.00 693.80,200.48 693.40,199.85 C693.00,199.19 693.13,198.96 693.69,199.31 C694.24,199.65 696.00,198.55 697.60,196.87 C699.19,195.19 702.30,192.90 704.50,191.79 C706.70,190.67 708.18,190.09 707.80,190.50 C707.41,190.91 708.44,193.91 710.09,197.18 C714.30,205.52 715.50,212.27 714.04,219.33 C711.97,229.26 704.06,238.25 697.38,238.25 L 694.87 238.25 L 697.62 241.12 C699.13,242.71 700.14,244.00 699.86,244.00 C699.58,244.00 698.26,242.84 696.94,241.43 ZM 656.47 698.80 C658.96,697.59 661.00,696.24 661.00,695.80 C661.00,695.36 661.61,695.00 662.35,695.00 C663.08,695.00 664.50,694.10 665.50,693.00 C667.26,691.06 667.25,691.00 665.15,691.00 C663.97,691.00 663.00,690.48 663.00,689.85 C663.00,688.99 657.14,688.87 640.10,689.39 C624.38,689.87 617.09,689.76 616.85,689.04 C616.60,688.31 607.67,688.19 588.21,688.65 C572.65,689.02 560.28,689.64 560.71,690.04 C561.65,690.89 574.29,692.61 622.50,698.46 C647.45,701.49 650.87,701.52 656.47,698.80 ZM 690.00 770.51 C683.67,769.23 671.08,766.54 662.00,764.54 C652.92,762.54 636.28,758.90 625.00,756.45 C605.65,752.25 594.00,749.29 594.00,748.58 C594.00,747.89 621.52,730.43 646.87,715.03 L 657.24 708.73 L 663.37 709.38 C670.27,710.11 678.03,711.09 695.50,713.46 C715.05,716.11 735.58,718.78 750.28,720.59 C764.12,722.29 769.19,724.00 760.41,724.00 C752.74,724.00 728.55,720.83 727.85,719.73 C727.50,719.17 726.15,719.00 724.85,719.35 C721.90,720.15 702.00,717.93 702.00,716.81 C702.00,716.35 700.20,716.26 698.00,716.62 C695.80,716.97 694.00,716.86 694.00,716.38 C694.00,715.90 690.06,715.40 685.26,715.28 C680.45,715.16 676.38,714.63 676.20,714.10 C676.03,713.58 674.33,713.40 672.44,713.70 C670.50,714.02 669.00,713.84 669.00,713.29 C669.00,712.17 660.01,712.27 655.25,713.45 C653.46,713.89 652.00,714.64 652.00,715.12 C652.00,715.61 651.37,716.00 650.61,716.00 C649.84,716.00 648.95,716.67 648.64,717.50 C648.32,718.33 647.20,719.00 646.14,719.00 C645.08,719.00 643.95,719.67 643.64,720.50 C643.32,721.33 642.15,722.00 641.03,722.00 C639.91,722.00 639.00,722.40 639.00,722.89 C639.00,723.38 637.88,724.07 636.50,724.41 C635.12,724.76 634.00,725.48 634.00,726.02 C634.00,726.56 633.33,727.00 632.50,727.00 C631.67,727.00 631.00,727.45 631.00,728.00 C631.00,728.55 630.36,729.00 629.57,729.00 C628.79,729.00 627.53,729.62 626.77,730.37 C626.02,731.12 624.42,732.05 623.20,732.44 C621.99,732.82 621.00,733.55 621.00,734.07 C621.00,734.58 620.33,735.00 619.50,735.00 C618.67,735.00 618.00,735.40 618.00,735.89 C618.00,736.38 616.88,737.07 615.50,737.41 C614.12,737.76 613.00,738.48 613.00,739.02 C613.00,739.56 612.37,740.00 611.61,740.00 C610.84,740.00 609.95,740.67 609.64,741.50 C609.32,742.33 608.15,743.00 607.03,743.00 C605.91,743.00 605.00,743.45 605.00,744.00 C605.00,744.55 604.33,745.00 603.50,745.00 C602.67,745.00 602.00,745.45 602.00,746.00 C602.00,746.55 601.30,747.00 600.44,747.00 C597.46,747.00 600.01,748.79 603.74,749.32 C608.30,749.97 615.29,751.41 624.00,753.50 C627.58,754.35 635.67,756.19 642.00,757.59 C648.33,758.99 655.08,760.53 657.00,761.01 C658.92,761.49 665.67,763.00 672.00,764.36 C678.33,765.72 685.53,767.34 688.00,767.97 C690.47,768.59 695.65,769.77 699.50,770.60 C708.49,772.52 709.27,772.84 705.00,772.84 C703.08,772.84 696.33,771.79 690.00,770.51 ZM 491.75 793.25 C493.54,792.36 495.00,791.30 495.00,790.90 C495.00,790.49 496.58,789.64 498.50,789.00 C500.42,788.36 502.00,787.46 502.00,787.00 C502.00,786.54 503.58,785.64 505.50,785.00 C507.42,784.36 509.00,783.50 509.00,783.07 C509.00,782.65 510.91,781.46 513.25,780.43 C515.59,779.40 517.72,778.26 518.00,777.89 C518.28,777.52 520.20,776.52 522.29,775.65 C524.37,774.78 526.76,773.38 527.61,772.54 C528.45,771.69 529.75,771.00 530.50,771.00 C531.25,771.00 532.47,770.44 533.21,769.75 C535.10,768.01 539.65,765.42 545.25,762.88 C547.86,761.70 550.00,760.34 550.00,759.87 C550.00,759.39 550.54,759.00 551.20,759.00 C553.10,759.00 560.02,753.84 559.42,752.88 C559.13,752.39 558.01,752.00 556.94,752.00 C555.87,752.00 555.00,751.59 555.00,751.09 C555.00,750.60 554.10,750.42 553.00,750.71 C551.83,751.02 551.00,750.74 551.00,750.05 C551.00,749.32 550.23,749.11 549.00,749.50 C547.84,749.87 547.00,749.68 547.00,749.05 C547.00,748.39 546.02,748.21 544.50,748.59 C543.06,748.95 542.00,748.79 542.00,748.20 C542.00,747.64 541.10,747.42 540.00,747.71 C538.90,748.00 538.00,747.83 538.00,747.33 C538.00,746.83 536.09,746.35 533.76,746.26 C531.43,746.16 529.39,745.67 529.22,745.15 C529.04,744.63 528.03,744.44 526.95,744.72 C525.88,745.00 525.00,744.74 525.00,744.15 C525.00,743.55 524.33,743.32 523.50,743.64 C522.67,743.95 522.00,743.69 522.00,743.04 C522.00,742.32 521.22,742.11 520.00,742.50 C518.80,742.88 518.00,742.68 518.00,742.00 C518.00,741.32 517.20,741.12 516.00,741.50 C514.84,741.87 514.00,741.68 514.00,741.05 C514.00,740.39 513.02,740.21 511.50,740.59 C510.06,740.95 509.00,740.79 509.00,740.20 C509.00,739.64 508.10,739.42 507.00,739.71 C505.90,740.00 505.00,739.77 505.00,739.21 C505.00,738.65 504.10,738.42 503.00,738.71 C501.90,739.00 501.00,738.77 501.00,738.21 C501.00,737.65 500.10,737.42 499.00,737.71 C497.90,738.00 497.00,737.77 497.00,737.21 C497.00,736.65 496.10,736.42 495.00,736.71 C493.83,737.02 493.00,736.74 493.00,736.05 C493.00,735.32 492.23,735.11 491.00,735.50 C489.90,735.85 489.00,735.70 489.00,735.16 C489.00,734.63 488.10,734.42 487.00,734.71 C485.83,735.02 485.00,734.74 485.00,734.05 C485.00,733.32 484.23,733.11 483.00,733.50 C481.90,733.85 481.00,733.70 481.00,733.16 C481.00,732.63 480.10,732.42 479.00,732.71 C477.87,733.01 477.00,732.74 477.00,732.10 C477.00,731.39 476.07,731.20 474.50,731.59 C473.06,731.95 472.00,731.79 472.00,731.20 C472.00,730.64 471.10,730.42 470.00,730.71 C468.90,731.00 468.00,730.77 468.00,730.21 C468.00,729.65 467.10,729.42 466.00,729.71 C464.84,730.01 464.00,729.74 464.00,729.06 C464.00,728.41 463.53,728.17 462.95,728.53 C462.37,728.89 460.39,728.46 458.54,727.59 C456.69,726.71 454.47,726.27 453.59,726.60 C452.72,726.94 452.00,726.71 452.00,726.09 C452.00,725.39 451.06,725.20 449.50,725.59 C448.12,725.93 447.00,725.83 447.00,725.36 C447.00,724.89 445.42,724.47 443.50,724.42 C441.57,724.38 440.00,724.71 440.00,725.14 C440.00,725.58 439.33,725.68 438.50,725.36 C437.67,725.05 437.00,725.25 437.00,725.83 C437.00,726.90 433.87,728.23 430.66,728.52 C429.65,728.61 428.47,729.23 428.05,729.91 C427.64,730.59 426.01,731.29 424.43,731.46 C422.86,731.63 421.41,732.28 421.20,732.89 C421.00,733.51 420.45,733.78 419.99,733.49 C418.90,732.82 414.00,735.05 414.00,736.22 C414.00,736.71 413.58,736.86 413.07,736.55 C411.92,735.83 407.00,738.00 407.00,739.22 C407.00,739.71 406.58,739.86 406.07,739.54 C404.93,738.84 398.00,742.02 398.00,743.24 C398.00,743.72 397.58,743.86 397.07,743.55 C395.97,742.86 391.00,744.98 391.00,746.13 C391.00,746.57 390.41,746.71 389.69,746.44 C388.97,746.16 387.33,746.85 386.04,747.97 C383.83,749.88 382.53,750.41 380.72,750.11 C379.78,749.95 373.71,752.99 373.00,753.97 C372.37,754.84 365.98,758.00 364.85,758.00 C360.83,758.00 374.60,750.36 392.00,742.94 C395.58,741.42 405.70,736.95 414.50,733.01 C423.30,729.07 433.37,724.74 436.89,723.38 L 443.27 720.91 L 453.39 723.42 C463.35,725.89 485.71,731.28 524.00,740.44 C553.20,747.43 566.00,751.08 566.00,752.42 C566.00,753.60 558.29,758.07 520.50,778.79 C498.99,790.59 490.41,795.03 489.28,794.94 C488.85,794.90 489.96,794.14 491.75,793.25 ZM 351.00 750.00 C351.00,749.45 351.53,749.00 352.18,749.00 C352.84,749.00 355.42,748.06 357.93,746.91 C360.45,745.76 363.40,744.46 364.50,744.02 C365.60,743.58 370.77,741.52 376.00,739.45 C381.23,737.37 388.42,734.36 392.00,732.75 C398.42,729.88 402.12,728.27 407.00,726.24 C408.38,725.67 411.08,724.54 413.00,723.72 C414.92,722.90 418.19,721.70 420.25,721.04 C423.99,719.85 425.35,718.00 422.50,718.00 C421.67,718.00 421.00,717.54 421.00,716.98 C421.00,716.39 419.94,716.23 418.50,716.59 C417.06,716.95 416.00,716.79 416.00,716.20 C416.00,715.64 415.10,715.42 414.00,715.71 C412.87,716.01 412.00,715.74 412.00,715.10 C412.00,714.39 411.07,714.20 409.50,714.59 C408.06,714.95 407.00,714.79 407.00,714.20 C407.00,713.64 406.10,713.42 405.00,713.71 C403.90,714.00 403.00,713.74 403.00,713.14 C403.00,712.46 401.87,712.28 400.00,712.65 C398.22,713.01 397.00,712.83 397.00,712.22 C397.00,711.65 396.10,711.42 395.00,711.71 C393.90,712.00 393.00,711.77 393.00,711.21 C393.00,710.65 392.10,710.42 391.00,710.71 C389.90,711.00 389.00,710.79 389.00,710.26 C389.00,709.72 387.88,709.49 386.50,709.76 C385.12,710.02 384.00,709.79 384.00,709.26 C384.00,708.72 382.88,708.49 381.50,708.76 C380.12,709.02 379.00,708.77 379.00,708.21 C379.00,707.65 378.10,707.42 377.00,707.71 C375.90,708.00 375.00,707.84 375.00,707.35 C375.00,706.86 373.11,706.42 370.79,706.36 C368.48,706.30 366.41,705.74 366.21,705.12 C365.99,704.47 364.83,704.26 363.42,704.61 C362.09,704.94 361.00,704.82 361.00,704.34 C361.00,703.86 359.11,703.42 356.79,703.36 C354.48,703.30 352.41,702.74 352.21,702.12 C351.99,701.47 350.83,701.26 349.42,701.61 C347.93,701.98 347.00,701.78 347.00,701.09 C347.00,700.39 346.06,700.20 344.50,700.59 C343.06,700.95 342.00,700.79 342.00,700.20 C342.00,699.64 341.10,699.42 340.00,699.71 C338.90,700.00 338.00,699.84 338.00,699.37 C338.00,698.89 335.87,698.42 333.27,698.32 C330.67,698.22 328.41,697.72 328.24,697.21 C328.07,696.71 326.82,696.50 325.47,696.76 C324.02,697.04 323.00,696.77 323.00,696.10 C323.00,695.39 322.07,695.20 320.50,695.59 C318.94,695.98 318.00,695.79 318.00,695.09 C318.00,694.39 317.06,694.20 315.50,694.59 C314.06,694.95 313.00,694.79 313.00,694.20 C313.00,693.36 307.13,692.00 301.00,691.43 C300.17,691.36 299.05,691.16 298.50,690.99 C296.16,690.27 289.00,690.48 289.00,691.26 C289.00,691.73 288.50,691.81 287.89,691.43 C287.28,691.05 286.44,691.28 286.03,691.94 C285.63,692.60 284.01,693.29 282.43,693.46 C280.86,693.63 279.41,694.28 279.20,694.89 C279.00,695.51 278.45,695.78 277.98,695.49 C277.01,694.89 269.00,697.89 269.00,698.86 C269.00,699.21 267.78,699.57 266.29,699.66 C262.78,699.86 263.80,699.32 277.71,693.61 C286.27,690.09 290.19,689.00 294.31,689.00 C301.93,689.00 334.20,694.54 361.00,700.45 C367.33,701.84 377.82,704.11 384.33,705.48 C390.83,706.85 398.59,708.62 401.58,709.39 C404.56,710.17 407.87,710.58 408.93,710.31 C409.99,710.03 412.13,710.48 413.68,711.30 C416.33,712.71 419.14,713.62 430.00,716.55 C434.37,717.73 434.43,717.80 432.00,718.85 C426.96,721.04 351.91,751.00 351.46,751.00 C351.21,751.00 351.00,750.55 351.00,750.00 ZM 509.73 800.40 C508.69,799.36 517.38,793.72 562.00,766.51 C575.86,758.06 579.57,755.57 583.37,755.43 C585.26,755.35 587.16,755.86 590.34,756.49 C599.03,758.24 639.24,767.92 672.92,776.37 C685.47,779.52 693.51,782.02 693.79,782.86 C694.14,783.91 693.48,784.05 690.87,783.48 C689.02,783.08 687.37,782.41 687.20,781.98 C687.04,781.56 686.03,781.44 684.95,781.72 C683.83,782.02 683.00,781.73 683.00,781.05 C683.00,780.32 682.23,780.11 681.00,780.50 C679.84,780.87 679.00,780.68 679.00,780.05 C679.00,779.39 678.02,779.21 676.50,779.59 C675.06,779.95 674.00,779.79 674.00,779.20 C674.00,778.64 673.10,778.42 672.00,778.71 C670.90,779.00 670.00,778.77 670.00,778.21 C670.00,777.65 669.10,777.42 668.00,777.71 C666.83,778.02 666.00,777.74 666.00,777.05 C666.00,776.32 665.23,776.11 664.00,776.50 C662.80,776.88 662.00,776.68 662.00,776.00 C662.00,775.32 661.20,775.12 660.00,775.50 C658.80,775.88 658.00,775.68 658.00,775.00 C658.00,774.32 657.20,774.12 656.00,774.50 C654.84,774.87 654.00,774.68 654.00,774.05 C654.00,773.39 653.02,773.21 651.50,773.59 C649.90,773.99 649.00,773.80 649.00,773.04 C649.00,772.32 648.23,772.11 647.00,772.50 C645.80,772.88 645.00,772.68 645.00,772.00 C645.00,771.34 644.20,771.12 643.08,771.47 C642.03,771.81 640.90,771.66 640.58,771.13 C640.26,770.61 639.10,770.42 638.00,770.71 C636.90,771.00 636.00,770.77 636.00,770.21 C636.00,769.65 635.10,769.42 634.00,769.71 C632.90,770.00 632.00,769.74 632.00,769.15 C632.00,768.55 631.28,768.34 630.40,768.68 C629.52,769.02 628.45,768.73 628.03,768.05 C627.61,767.37 625.63,766.76 623.63,766.71 C621.63,766.65 620.00,766.23 620.00,765.78 C620.00,765.33 618.88,765.24 617.50,765.59 C615.99,765.97 615.00,765.79 615.00,765.14 C615.00,764.55 614.28,764.34 613.40,764.68 C612.52,765.02 611.45,764.73 611.03,764.05 C610.61,763.37 608.63,762.76 606.63,762.71 C604.63,762.65 603.00,762.21 603.00,761.73 C603.00,761.26 602.10,761.15 601.00,761.50 C599.84,761.87 599.00,761.68 599.00,761.05 C599.00,760.39 598.02,760.21 596.50,760.59 C594.94,760.98 594.00,760.79 594.00,760.09 C594.00,759.39 593.06,759.20 591.50,759.59 C590.12,759.93 589.00,759.83 589.00,759.36 C589.00,758.89 586.72,758.50 583.93,758.50 C580.14,758.50 578.61,758.94 577.88,760.25 C577.34,761.21 576.06,762.00 575.02,762.00 C573.99,762.00 572.53,762.62 571.77,763.37 C571.02,764.12 569.42,765.05 568.20,765.44 C566.99,765.82 566.00,766.46 566.00,766.87 C566.00,767.27 564.42,768.17 562.50,768.86 C560.58,769.56 559.00,770.50 559.00,770.96 C559.00,771.41 557.88,772.07 556.50,772.41 C555.12,772.76 554.00,773.48 554.00,774.02 C554.00,774.56 553.37,775.00 552.61,775.00 C551.84,775.00 550.95,775.67 550.64,776.50 C550.32,777.33 549.18,778.00 548.10,778.00 C547.02,778.00 545.47,778.67 544.64,779.50 C543.82,780.33 542.71,781.00 542.18,781.00 C541.65,781.00 540.95,781.67 540.64,782.50 C540.32,783.33 539.20,784.00 538.14,784.00 C537.08,784.00 535.95,784.67 535.64,785.50 C535.32,786.33 534.18,787.00 533.10,787.00 C532.02,787.00 530.47,787.67 529.64,788.50 C528.82,789.33 527.66,790.00 527.07,790.00 C526.48,790.00 526.00,790.48 526.00,791.06 C526.00,791.64 523.86,793.05 521.25,794.19 C518.64,795.34 516.14,796.89 515.70,797.64 C515.26,798.39 514.06,799.00 513.03,799.00 C512.01,799.00 511.01,799.48 510.81,800.06 C510.62,800.65 510.13,800.80 509.73,800.40 ZM 756.50 715.42 C749.90,714.69 735.72,713.15 725.00,712.00 C714.28,710.84 699.56,709.25 692.30,708.45 C685.04,707.65 677.61,706.98 675.80,706.95 C673.98,706.93 671.15,706.33 669.50,705.63 L 666.50 704.34 L 675.22 698.71 C682.98,693.71 686.25,691.58 689.84,690.67 C692.53,689.99 695.39,690.00 700.45,690.00 C707.25,690.00 711.00,690.38 711.00,691.07 C711.00,691.77 707.24,692.05 699.92,691.89 C693.82,691.76 688.53,692.07 688.17,692.58 C687.80,693.09 686.26,694.14 684.75,694.92 C683.24,695.70 682.00,696.71 682.00,697.17 C682.00,697.63 681.31,698.00 680.47,698.00 C679.63,698.00 678.68,698.67 678.36,699.50 C678.05,700.33 677.16,701.00 676.39,701.00 C674.66,701.00 674.55,702.90 676.25,703.52 C677.56,703.99 714.69,708.43 748.00,712.09 C758.72,713.26 768.85,714.81 770.50,715.53 C773.37,716.78 773.39,716.83 771.00,716.79 C769.62,716.76 763.10,716.15 756.50,715.42 ZM 647.94 681.66 C647.70,681.45 628.23,680.99 604.67,680.64 C563.52,680.04 555.20,679.38 561.00,677.18 C562.38,676.66 563.85,676.44 564.27,676.69 C564.69,676.94 581.56,677.53 601.77,678.01 C647.81,679.11 679.17,680.17 678.73,680.60 C678.24,681.09 648.45,682.11 647.94,681.66 ZM 606.90 701.08 C607.84,700.49 606.00,699.98 601.40,699.57 C597.61,699.22 590.45,698.32 585.50,697.55 C580.55,696.78 576.17,696.47 575.76,696.86 C575.36,697.25 575.81,697.62 576.76,697.69 C581.47,698.00 602.38,701.05 602.83,701.49 C603.59,702.25 605.33,702.08 606.90,701.08 Z" fill="rgba(89,175,215,1)"/>
<path d="M 321.33 669.08 C313.42,668.52 308.57,667.00 314.68,667.00 C322.50,667.00 335.88,668.39 335.41,669.15 C335.12,669.62 333.67,669.92 332.19,669.83 C330.71,669.74 325.82,669.40 321.33,669.08 Z" fill="rgba(45,51,54,1)"/>
<path d="M 703.21 446.40 C703.06,357.13 703.33,317.36 704.07,315.22 C704.67,313.52 706.35,311.31 707.82,310.32 C710.31,308.63 713.58,308.50 753.00,308.50 C776.38,308.50 796.75,308.85 798.28,309.28 C799.81,309.70 801.95,311.50 803.03,313.28 C804.95,316.43 804.99,318.93 805.00,430.10 C805.00,510.01 804.67,544.64 803.90,546.85 C803.30,548.58 802.13,550.00 801.31,550.00 C800.48,550.00 798.61,550.62 797.15,551.38 C794.42,552.81 789.76,554.88 784.50,557.00 C781.31,558.29 776.43,560.36 771.50,562.51 C769.85,563.23 767.60,564.05 766.50,564.33 C765.40,564.61 761.12,566.28 757.00,568.04 C748.74,571.57 741.65,573.38 742.69,571.69 C743.10,571.02 742.66,570.95 741.41,571.47 C740.36,571.92 738.75,572.32 737.82,572.36 C736.90,572.40 736.37,572.78 736.63,573.22 C737.46,574.55 729.69,573.29 726.26,571.53 C724.48,570.61 722.50,570.19 721.86,570.59 C721.17,571.01 720.96,570.88 721.34,570.26 C722.28,568.73 719.99,568.15 715.20,568.70 C712.53,569.01 711.00,568.79 711.00,568.09 C711.00,567.49 710.10,567.00 709.00,567.00 C707.65,567.00 707.00,566.33 707.00,564.94 C707.00,563.81 706.55,563.16 706.00,563.50 C705.37,563.89 704.92,561.05 704.79,555.81 C704.63,549.05 704.48,550.03 704.00,561.00 C703.68,568.42 703.32,516.85 703.21,446.40 ZM 675.78 515.76 C675.21,514.35 674.24,514.11 670.78,514.55 C666.80,515.05 666.64,514.98 668.50,513.58 C670.37,512.16 670.30,512.12 667.33,512.94 C665.58,513.42 663.99,513.66 663.80,513.47 C662.83,512.50 658.07,512.29 657.76,513.21 C657.55,513.85 656.80,513.66 655.87,512.73 C654.31,511.17 646.51,511.07 641.83,512.55 C640.56,512.96 639.99,512.83 640.36,512.22 C641.08,511.06 630.46,511.56 621.65,513.11 C615.36,514.22 613.23,513.69 617.10,511.99 L 619.50 510.94 L 617.00 511.46 C615.62,511.74 613.71,511.98 612.75,511.99 C611.78,511.99 610.97,512.78 610.93,513.75 C610.88,515.11 610.61,514.98 609.74,513.16 C608.75,511.10 608.14,510.90 604.56,511.45 C594.22,513.05 591.00,513.18 591.00,512.02 C591.00,511.25 590.03,511.05 588.25,511.44 C580.17,513.21 579.58,513.21 581.08,511.40 C582.34,509.89 582.26,509.78 580.33,510.40 C579.13,510.78 577.88,510.61 577.52,510.02 C577.16,509.44 576.44,509.23 575.93,509.54 C575.42,509.86 574.93,509.08 574.85,507.81 C574.77,506.54 574.38,507.52 574.00,510.00 C573.62,512.47 573.24,494.02 573.16,469.00 C573.04,430.97 573.25,423.04 574.46,420.72 C575.46,418.82 575.53,418.13 574.71,418.54 C574.04,418.88 574.37,418.44 575.44,417.57 C576.51,416.71 577.97,416.00 578.69,416.00 C579.41,416.00 580.00,415.66 580.00,415.25 C580.00,414.84 600.63,414.34 625.83,414.14 C667.23,413.81 671.98,413.94 674.91,415.45 C680.91,418.56 681.02,419.48 680.79,465.22 C680.64,494.44 680.41,501.68 680.00,490.00 L 679.42 473.50 L 679.20 493.50 C679.06,505.95 678.63,512.96 678.06,512.07 C677.40,511.02 677.07,511.55 676.83,514.07 C676.59,516.58 676.31,517.03 675.78,515.76 Z" fill="rgba(82,155,100,1)"/>
</g>
</svg>