<svg xmlns="http://www.w3.org/2000/svg" width="500" height="500" viewBox="0 0 500 500">
<g>
<path d="M 120.50 381.53 C120.29,381.40 119.87,381.22 119.25,380.97 C118.01,380.47 116.97,379.26 116.93,378.28 C116.90,377.49 116.85,377.11 116.72,377.15 C117.99,374.12 119.85,369.81 121.92,365.14 C125.73,356.54 129.60,347.59 130.53,345.25 C132.21,341.02 132.24,341.00 137.36,341.02 L 142.50 341.03 L 151.06 360.77 L 159.08 379.26 L 152.83 365.00 C149.10,356.48 146.04,350.40 146.03,351.50 C146.02,352.60 147.12,355.87 148.47,358.76 C151.23,364.68 151.52,371.82 148.98,371.05 C144.69,369.76 136.01,369.94 133.35,371.38 C130.57,372.88 130.69,372.92 138.20,372.96 L 145.91 373.00 L 128.97 373.00 L 127.26 376.75 C126.33,378.81 125.54,380.58 125.51,380.68 C125.44,380.98 123.00,381.32 120.50,381.53 ZM 220.00 264.03 L 225.75 263.46 C235.86,262.45 242.53,259.88 243.40,256.64 C243.63,255.76 243.84,252.96 243.93,249.74 C243.98,253.38 244.00,258.07 244.00,264.12 L 244.00 290.00 L 243.88 282.75 C243.82,278.76 243.58,276.40 243.35,277.50 C240.89,289.33 240.87,289.35 228.11,288.83 C223.71,288.65 220.10,288.83 220.00,289.23 L 220.00 264.03 ZM 256.83 243.96 C255.91,243.02 255.03,242.12 254.20,241.27 C255.69,242.50 256.57,242.72 257.47,242.39 C258.59,242.00 262.55,241.57 266.29,241.46 C270.83,241.32 273.65,240.72 274.82,239.66 C275.78,238.79 278.81,237.14 281.54,236.00 C293.34,231.07 304.82,225.31 307.50,222.98 C308.60,222.02 310.25,221.37 311.16,221.52 C311.62,221.60 312.35,221.34 313.15,220.86 C309.55,224.81 303.89,230.81 297.44,237.50 C281.03,254.51 276.16,259.00 274.13,259.00 C272.15,259.00 268.24,255.60 256.83,243.96 ZM 188.46 288.77 C188.41,288.62 188.36,287.96 188.32,286.87 L 193.11 285.05 C195.95,283.97 199.99,281.95 202.11,280.55 C204.23,279.15 206.36,278.00 206.84,278.00 C207.33,278.00 208.91,276.81 210.36,275.36 L 212.67 273.06 L 212.50 289.50 L 200.73 289.78 C191.80,290.00 188.84,289.75 188.46,288.77 ZM 94.78 365.80 L 94.50 349.50 L 94.78 361.67 L 95.06 373.85 L 97.55 371.36 C100.75,368.16 103.35,368.63 104.00,372.51 C104.28,374.15 104.63,369.54 104.78,362.25 L 105.01 351.05 L 104.77 365.25 L 104.50 381.50 L 99.78 381.80 L 95.05 382.11 ZM 141.99 363.75 C141.98,363.06 140.91,360.25 139.61,357.50 C137.30,352.62 137.22,352.56 136.24,355.00 C135.69,356.38 134.53,359.19 133.67,361.25 L 132.10 365.00 L 137.05 365.00 C140.35,365.00 142.00,364.58 141.99,363.75 ZM 135.44 366.53 C137.91,368.40 139.43,368.39 141.00,366.50 C142.07,365.20 141.65,365.00 137.87,365.03 C133.81,365.06 133.64,365.17 135.44,366.53 ZM 232.00 290.00 L 220.00 290.00 L 220.00 289.26 C220.13,289.67 225.48,290.00 232.00,290.00 ZM 245.46 231.83 C242.10,227.76 242.07,226.35 244.72,226.14 C242.17,226.44 242.42,228.02 245.46,231.83 ZM 210.06 234.99 C207.84,234.70 203.81,234.50 199.50,234.50 L 199.83 234.50 C204.46,234.50 207.99,234.67 210.06,234.99 ZM 317.20 216.17 C316.91,216.11 316.36,216.19 315.52,216.40 C316.41,216.15 317.04,216.00 317.25,216.00 C317.29,216.00 317.27,216.06 317.20,216.17 ZM 211.81 235.42 C211.94,235.49 212.04,235.55 212.10,235.62 C212.19,235.73 212.27,236.12 212.34,236.78 C212.19,236.05 212.02,235.62 211.81,235.42 ZM 115.00 381.52 C115.00,381.48 115.02,381.39 115.07,381.26 C115.06,381.43 115.32,381.59 115.76,381.71 C115.28,381.68 115.00,381.62 115.00,381.52 ZM 252.30 226.87 C253.82,227.20 255.00,227.60 255.34,227.94 C255.92,228.52 257.45,229.00 258.73,229.00 C257.45,229.00 255.94,228.54 255.37,227.97 C255.03,227.63 253.84,227.22 252.30,226.87 Z" fill="rgba(18,151,212,1)"/>
<path d="M 164.57 362.56 C164.17,351.84 164.13,342.60 164.48,342.03 C165.33,340.65 184.40,340.71 189.41,342.10 C197.52,344.35 200.55,351.93 195.62,357.66 L 193.24 360.42 L 196.06 363.06 C199.86,366.60 200.68,370.34 198.62,374.66 C196.16,379.82 191.77,381.28 177.39,381.71 L 165.29 382.07 ZM 147.90 377.50 L 145.91 373.00 L 138.20 372.96 C130.69,372.92 130.57,372.88 133.35,371.38 C136.01,369.94 144.69,369.76 148.98,371.05 C151.52,371.82 151.23,364.68 148.47,358.76 C147.12,355.87 146.02,352.60 146.03,351.50 C146.04,350.40 149.10,356.48 152.83,365.00 L 159.62 380.50 L 157.06 381.13 C151.02,382.62 149.98,382.21 147.90,377.50 ZM 186.45 372.84 C188.99,371.68 189.43,370.85 189.02,368.00 C188.67,365.62 186.93,365.03 180.25,365.02 L 174.00 365.00 L 174.00 368.83 C174.00,370.94 174.30,372.97 174.67,373.33 C175.76,374.42 183.71,374.09 186.45,372.84 ZM 186.96 355.07 C188.30,352.56 188.29,352.43 186.43,350.57 C185.39,349.53 183.03,349.00 179.43,349.00 L 174.00 349.00 L 174.00 357.00 L 179.96 357.00 C184.84,357.00 186.12,356.65 186.96,355.07 ZM 220.00 289.25 C220.00,288.84 223.65,288.65 228.11,288.83 C240.87,289.35 240.89,289.33 243.35,277.50 C243.58,276.40 243.82,278.76 243.88,282.75 L 244.00 290.00 L 232.00 290.00 C225.40,290.00 220.00,289.66 220.00,289.25 ZM 135.44 366.53 C133.64,365.17 133.81,365.06 137.87,365.03 C141.65,365.00 142.07,365.20 141.00,366.50 C139.43,368.39 137.91,368.40 135.44,366.53 ZM 115.07 381.25 C115.11,380.84 115.53,379.60 116.00,378.50 C116.75,376.75 116.87,376.72 116.93,378.28 C116.97,379.26 118.01,380.47 119.25,380.97 C121.29,381.79 121.20,381.88 118.25,381.94 C116.46,381.97 115.03,381.66 115.07,381.25 Z" fill="rgba(33,111,201,1)"/>
<path d="M 220.00 228.54 C220.00,242.76 220.04,243.05 222.00,242.00 C223.10,241.41 224.00,240.55 224.00,240.08 C224.00,239.61 225.57,238.48 227.50,237.57 C230.65,236.07 231.00,235.50 231.00,231.86 C231.00,228.69 231.42,227.70 232.94,227.30 C234.01,227.02 235.03,225.83 235.19,224.65 C235.27,224.11 235.49,223.63 235.87,223.19 C235.48,223.64 235.27,224.15 235.18,224.72 C234.87,226.91 239.25,234.31 242.42,236.93 C243.63,237.93 244.00,240.16 243.99,246.37 C243.98,250.84 243.71,255.46 243.40,256.64 C242.53,259.88 235.86,262.45 225.75,263.46 L 220.00 264.03 L 220.00 228.54 ZM 248.81 235.73 C240.96,227.00 241.01,225.37 249.08,226.32 C251.97,226.67 254.81,227.41 255.37,227.97 C255.94,228.54 257.45,229.00 258.73,229.00 C260.01,229.00 263.80,230.39 267.16,232.08 L 273.26 235.16 L 277.38 231.20 C282.66,226.12 284.22,225.36 295.32,222.47 C300.37,221.15 307.16,219.16 310.41,218.04 C311.32,217.72 312.14,217.44 312.87,217.20 C312.42,217.54 312.55,217.96 313.12,218.64 C314.05,219.77 314.50,219.80 315.86,218.62 C315.78,218.71 315.69,218.80 315.60,218.90 C314.07,220.49 312.07,221.67 311.16,221.52 C310.25,221.37 308.60,222.02 307.50,222.98 C304.82,225.31 293.34,231.07 281.54,236.00 C278.81,237.14 275.78,238.79 274.82,239.66 C273.65,240.72 270.83,241.32 266.29,241.46 C262.55,241.57 258.59,242.00 257.47,242.39 C255.81,242.98 254.23,241.77 248.81,235.73 ZM 188.14 270.32 L 198.50 260.25 C204.65,254.27 209.87,250.00 211.03,250.00 C212.38,250.00 212.82,249.60 212.95,246.67 C212.98,248.88 213.00,251.47 213.00,254.49 L 213.00 272.73 L 210.36 275.36 C208.91,276.81 207.33,278.00 206.84,278.00 C206.36,278.00 204.23,279.15 202.11,280.55 C199.99,281.95 195.95,283.97 193.11,285.05 L 187.97 287.00 L 188.14 270.32 ZM 296.50 212.38 C298.36,210.63 300.21,208.94 302.05,207.30 C302.18,207.98 304.65,207.15 307.50,205.46 C308.60,204.81 311.69,204.19 314.37,204.09 C317.53,203.96 321.13,202.88 324.67,201.00 C329.34,198.50 330.18,198.32 330.71,199.68 C331.04,200.55 330.73,202.22 330.02,203.38 L 329.11 204.87 C324.49,208.60 319.55,210.87 311.77,213.41 C307.03,214.96 297.48,217.54 292.95,218.55 C294.37,217.98 295.46,217.03 294.19,217.02 C293.47,217.01 293.16,216.55 293.50,216.00 C293.92,215.32 293.99,215.01 293.79,215.02 C294.59,214.21 295.51,213.32 296.50,212.38 ZM 103.59 370.50 C103.67,370.94 103.74,371.33 103.81,371.65 C102.94,368.58 100.49,368.42 97.55,371.36 L 96.00 372.91 L 96.91 370.00 C97.68,367.52 98.39,364.71 98.49,363.75 C98.85,360.20 101.70,360.47 102.41,364.12 C102.55,364.88 103.08,367.75 103.59,370.50 ZM 95.46 373.45 L 95.06 373.85 L 94.78 361.67 L 94.50 349.50 L 95.00 362.00 L 95.46 373.45 ZM 336.79 197.14 C340.79,192.35 345.22,186.49 346.44,184.14 C347.40,182.26 347.73,181.03 347.45,180.24 C348.33,181.86 345.47,186.55 338.88,194.64 C338.16,195.52 337.47,196.35 336.79,197.14 ZM 341.03 180.84 C336.67,182.56 330.66,185.72 325.04,189.41 C322.77,190.90 320.15,192.74 317.50,194.66 C325.49,188.74 332.92,184.26 339.41,181.50 C339.98,181.26 340.52,181.04 341.03,180.84 ZM 316.42 216.21 C316.94,216.12 317.26,216.14 317.39,216.26 C317.20,216.18 316.88,216.16 316.42,216.21 ZM 104.00 372.51 C103.99,372.44 103.98,372.38 103.97,372.32 C104.04,372.58 104.10,372.74 104.15,372.81 C104.10,372.90 104.05,372.80 104.00,372.51 ZM 290.77 218.97 C290.69,218.98 290.61,218.98 290.56,218.98 C290.50,218.98 290.47,218.94 290.48,218.88 C290.55,218.92 290.65,218.95 290.77,218.97 Z" fill="rgba(32,186,213,1)"/>
<path d="M 188.50 234.50 L 199.50 234.50 C205.55,234.50 211.06,234.89 211.75,235.37 C212.54,235.93 213.00,238.75 213.00,243.12 C213.00,249.30 212.80,250.00 211.03,250.00 C209.87,250.00 204.65,254.27 198.50,260.25 L 187.95 270.50 L 188.50 234.50 ZM 302.05 207.22 C302.12,206.14 316.26,195.18 325.04,189.41 C334.74,183.03 345.65,178.25 347.12,179.72 C347.85,180.45 347.65,181.78 346.44,184.14 C344.52,187.85 334.54,200.36 330.98,203.50 L 328.72 205.50 L 330.02 203.38 C330.73,202.22 331.04,200.55 330.71,199.68 C330.18,198.32 329.34,198.50 324.67,201.00 C321.13,202.88 317.53,203.96 314.37,204.09 C311.69,204.19 308.60,204.81 307.50,205.46 C304.55,207.21 301.99,208.04 302.05,207.22 ZM 220.00 228.54 L 220.00 214.00 L 244.00 214.00 L 244.00 216.78 C244.00,219.16 243.38,219.78 239.75,221.03 C236.75,222.07 235.41,223.13 235.19,224.65 C235.03,225.83 234.01,227.02 232.94,227.30 C231.42,227.70 231.00,228.69 231.00,231.86 C231.00,235.50 230.65,236.07 227.50,237.57 C225.57,238.48 224.00,239.61 224.00,240.08 C224.00,240.55 223.10,241.41 222.00,242.00 C220.04,243.05 220.00,242.76 220.00,228.54 Z" fill="rgba(63,204,210,1)"/>
<path d="M 103.59 370.50 C103.08,367.75 102.55,364.88 102.41,364.12 C101.70,360.47 98.85,360.20 98.49,363.75 C98.39,364.71 97.68,367.52 96.91,370.00 L 95.50 374.50 L 94.50 349.50 L 90.00 349.43 C85.94,349.36 84.23,349.34 83.52,348.49 C83.00,347.87 83.00,346.82 83.00,345.00 L 83.00 341.00 L 116.00 341.00 L 116.00 349.00 L 105.06 349.00 L 104.78 362.25 C104.54,373.74 104.38,374.83 103.59,370.50 ZM 313.12 218.64 C312.17,217.50 312.45,217.10 314.59,216.57 C318.00,215.71 318.47,216.26 316.15,218.36 C314.56,219.80 314.12,219.84 313.12,218.64 ZM 291.50 217.00 C293.42,214.88 294.54,214.32 293.50,216.00 C293.16,216.55 293.47,217.01 294.19,217.02 C296.01,217.04 292.98,218.96 291.10,218.98 C290.03,219.00 290.12,218.52 291.50,217.00 Z" fill="rgba(62,169,208,1)"/>
<path d="M 295.50 380.05 C287.02,376.21 282.72,367.97 284.00,358.03 C284.86,351.30 288.75,345.81 294.61,343.05 C298.53,341.21 300.71,340.87 306.64,341.17 C312.72,341.47 314.55,342.01 318.10,344.52 C325.67,349.87 328.83,359.93 325.58,368.42 C323.60,373.61 318.44,378.97 313.81,380.65 C308.91,382.42 300.11,382.14 295.50,380.05 ZM 333.89 373.58 C333.83,369.14 333.72,359.99 333.64,353.25 L 333.50 341.00 L 343.88 341.00 C356.43,341.00 361.16,342.27 365.05,346.71 C369.81,352.13 369.12,359.88 363.34,366.09 L 360.93 368.68 L 365.43 374.80 C367.91,378.17 369.61,381.10 369.22,381.33 C368.82,381.55 366.26,381.68 363.52,381.61 C358.63,381.50 358.48,381.40 354.59,375.75 C351.11,370.70 350.22,370.00 347.31,370.00 L 344.00 370.00 L 344.00 375.45 C344.00,380.84 343.96,380.92 340.75,381.40 C337.65,381.87 335.97,382.13 335.06,381.42 C333.98,380.57 333.96,378.38 333.89,373.58 ZM 285.75 274.43 C286.16,274.85 288.30,274.96 290.50,274.67 C292.70,274.39 298.33,273.66 303.00,273.05 C315.56,271.42 316.43,270.90 320.43,262.57 C322.74,257.78 324.75,254.98 326.45,254.21 L 329.00 253.04 C328.99,271.58 328.78,276.69 326.15,279.65 C325.06,280.87 323.57,281.72 321.52,282.99 C315.04,286.99 301.42,290.00 289.75,290.00 L 282.00 290.00 L 282.00 261.48 L 305.50 238.00 L 319.55 223.96 C315.09,228.51 313.21,231.08 313.54,232.12 C313.90,233.25 311.82,236.24 307.28,241.15 C289.73,260.15 282.58,271.20 285.75,274.43 ZM 373.83 381.33 C372.00,380.84 372.12,380.42 377.22,369.00 C381.42,359.59 383.75,354.28 386.55,347.75 L 389.45 341.00 L 399.75 341.00 L 401.99 346.25 C403.22,349.14 405.02,353.30 405.99,355.50 C406.97,357.70 409.21,362.88 410.98,367.00 C412.75,371.12 414.84,375.82 415.61,377.43 C417.34,381.00 416.31,381.96 410.71,381.98 C407.18,382.00 406.80,381.71 405.00,377.50 L 403.07 373.00 L 385.93 373.00 L 384.00 377.50 C382.25,381.58 381.77,381.99 378.79,381.88 C376.98,381.82 374.75,381.57 373.83,381.33 ZM 175.83 305.30 C174.36,304.38 172.67,302.58 172.09,301.30 C171.38,299.74 171.01,279.33 170.98,239.86 C170.98,232.15 170.97,225.39 170.97,219.47 C170.97,223.86 170.98,228.71 170.98,234.06 C171.02,279.75 171.24,287.61 172.52,289.02 C173.33,289.92 174.00,291.18 174.00,291.83 C174.00,294.13 177.56,293.06 177.75,290.71 C177.86,289.44 178.73,286.41 179.70,283.96 C181.26,280.00 181.52,274.19 181.98,232.00 L 182.50 184.50 L 182.50 295.50 L 227.50 295.82 C258.45,296.05 279.25,295.62 293.81,294.15 C283.90,295.35 272.01,295.97 258.32,295.98 C236.72,296.00 233.71,296.60 234.14,300.75 C234.29,302.26 235.09,304.31 235.91,305.29 C236.57,306.10 237.49,306.54 242.06,306.75 C184.09,306.95 178.23,306.81 175.83,305.30 ZM 251.00 246.64 L 259.87 255.31 C264.74,260.09 270.38,264.68 272.40,265.52 L 276.07 267.05 L 275.78 278.28 L 275.50 289.50 L 263.25 289.78 L 251.00 290.06 L 251.00 246.64 ZM 311.83 371.30 C317.57,367.72 318.21,358.05 313.05,352.90 C307.99,347.84 301.98,347.86 296.87,352.97 C294.55,355.29 294.00,356.72 294.00,360.38 C294.00,366.65 295.62,369.60 300.34,371.94 C304.61,374.05 307.71,373.88 311.83,371.30 ZM 258.00 277.13 C259.38,277.48 260.73,277.81 261.00,277.88 C261.27,277.94 263.19,277.52 265.25,276.95 C270.28,275.55 270.08,273.80 264.00,266.29 C261.25,262.89 259.00,259.52 259.00,258.81 C258.99,256.56 255.10,251.00 253.53,251.00 C251.35,251.00 250.70,254.92 251.19,265.15 C251.66,274.85 252.11,275.64 258.00,277.13 ZM 356.00 360.00 C358.33,357.67 358.64,352.77 356.57,351.06 C355.78,350.40 352.63,349.61 349.57,349.29 L 344.00 348.72 L 344.00 362.00 L 349.00 362.00 C352.67,362.00 354.53,361.47 356.00,360.00 ZM 399.31 365.25 C399.54,364.84 398.54,361.85 397.09,358.62 L 394.44 352.74 L 391.82 358.81 L 389.20 364.89 L 392.85 365.28 C394.86,365.49 397.04,365.74 397.69,365.83 C398.35,365.92 399.07,365.66 399.31,365.25 ZM 302.52 156.60 C302.50,156.65 302.49,156.70 302.47,156.75 L 298.69 168.00 L 228.15 168.00 L 247.10 167.82 L 292.95 167.39 L 296.65 164.40 C299.92,161.75 300.81,160.99 302.52,156.60 ZM 314.50 140.42 C313.45,141.40 312.10,142.00 310.54,142.00 C310.48,142.00 310.43,142.00 310.38,142.00 C310.56,141.96 310.76,141.92 310.97,141.87 C312.41,141.58 313.59,141.10 314.50,140.42 ZM 312.84 127.43 C310.61,126.22 307.79,126.06 305.18,127.41 C307.90,126.00 310.51,126.02 312.84,127.43 ZM 323.03 220.48 L 329.00 214.52 L 329.00 214.55 L 323.03 220.48 ZM 173.48 177.03 C173.73,176.71 174.00,176.45 174.29,176.22 C175.10,175.60 176.09,175.23 177.33,174.65 C176.05,175.25 175.04,175.65 174.22,176.30 C173.95,176.51 173.71,176.75 173.48,177.03 Z" fill="rgba(85,43,190,1)"/>
<path d="M 199.62 163.38 C199.48,162.95 199.34,162.54 199.20,162.13 C199.91,164.12 200.40,165.51 200.53,165.86 C200.87,166.81 202.00,167.04 204.26,166.61 C212.09,165.13 223.16,164.04 236.32,163.45 C250.63,162.81 277.38,160.53 282.00,159.55 C285.59,158.80 290.00,156.87 290.00,156.07 C290.00,155.69 287.75,154.80 285.00,154.10 C282.25,153.39 280.00,152.49 280.00,152.09 C280.00,151.69 277.58,150.60 274.63,149.67 C274.28,149.56 273.93,149.44 273.59,149.31 C280.29,151.26 288.59,149.40 297.02,143.99 C302.01,140.79 302.11,140.62 301.48,136.90 C300.61,131.74 301.57,129.27 305.18,127.41 C310.65,124.58 317.00,128.39 317.00,134.50 C317.00,138.70 315.10,141.03 310.97,141.87 C307.73,142.53 307.37,143.04 304.72,150.54 C301.14,160.68 301.05,160.83 296.65,164.40 L 292.95 167.39 L 201.25 168.25 ZM 174.00 291.83 C174.00,291.18 173.33,289.92 172.52,289.02 C172.48,288.97 172.44,288.92 172.40,288.86 C172.50,288.68 172.60,288.28 172.74,287.67 C173.17,285.87 172.52,284.52 171.63,285.09 C171.13,279.37 171.01,265.90 170.98,234.06 C170.97,223.36 170.96,214.69 170.97,207.65 C171.08,229.85 171.55,233.10 174.48,235.20 C176.42,236.59 178.71,232.84 179.94,226.24 C180.63,222.53 181.49,211.62 181.85,202.00 L 182.50 184.50 L 181.98 232.00 C181.52,274.19 181.26,280.00 179.70,283.96 C178.73,286.41 177.86,289.44 177.75,290.71 C177.56,293.06 174.00,294.13 174.00,291.83 ZM 248.01 107.30 C248.67,107.10 249.34,107.00 250.00,107.00 C253.33,107.00 255.86,108.91 257.07,111.46 C256.68,110.76 256.17,110.08 255.55,109.45 C253.37,107.28 250.59,106.56 248.01,107.30 ZM 256.59 130.75 C258.94,135.63 262.01,140.15 265.10,143.49 C261.98,140.29 259.13,136.03 256.59,130.75 ZM 193.46 146.19 C191.89,142.77 190.84,142.24 188.95,141.86 C191.15,142.31 191.97,142.64 193.46,146.19 ZM 173.36 177.19 C173.62,176.83 173.90,176.55 174.22,176.30 C175.04,175.65 176.05,175.25 177.33,174.65 C175.57,175.48 174.29,176.12 173.36,177.19 Z" fill="rgba(137,44,215,1)"/>
<path d="M 235.91 305.29 C235.09,304.31 234.29,302.26 234.14,300.75 C233.71,296.60 236.72,296.00 258.32,295.98 C291.12,295.95 313.61,292.43 323.15,285.83 C326.14,283.77 329.00,283.43 329.00,285.13 C329.00,291.34 323.37,299.53 316.18,303.75 L 311.50 306.50 L 274.45 306.79 C239.81,307.07 237.29,306.97 235.91,305.29 ZM 217.50 380.77 C215.85,380.18 214.27,379.40 214.00,379.03 C213.73,378.66 212.78,378.09 211.91,377.77 C209.46,376.87 207.93,373.82 207.05,367.56 C207.39,367.98 207.88,368.00 208.57,368.00 C210.60,368.00 216.97,372.30 217.83,374.25 C218.02,374.66 219.28,375.00 220.64,375.00 C222.00,375.00 222.86,375.41 222.55,375.91 C222.24,376.42 222.55,377.02 223.23,377.24 C224.15,377.55 224.06,378.09 222.86,379.28 C221.97,380.17 220.96,380.63 220.62,380.29 C220.28,379.95 220.00,380.19 220.00,380.83 C220.00,381.16 220.23,381.42 220.63,381.61 C219.57,381.42 218.53,381.14 217.50,380.77 ZM 242.82 355.25 C242.58,365.76 242.27,369.27 241.03,372.25 C242.22,368.72 242.63,363.56 242.82,355.25 ZM 205.99 348.39 L 205.79 341.00 L 205.88 341.00 L 205.99 348.39 ZM 226.18 381.89 C228.18,381.66 230.35,381.19 232.21,380.51 C230.33,381.25 228.28,381.73 226.18,381.89 Z" fill="rgba(63,82,205,1)"/>
<path d="M 285.75 274.43 C282.58,271.20 289.73,260.15 307.28,241.15 C311.82,236.24 313.90,233.25 313.54,232.12 C313.17,230.97 315.50,227.97 321.00,222.50 L 329.00 214.55 L 329.00 253.04 L 326.45 254.21 C324.75,254.98 322.74,257.78 320.43,262.57 C316.43,270.90 315.56,271.42 303.00,273.05 C298.33,273.66 292.70,274.39 290.50,274.67 C288.30,274.96 286.16,274.85 285.75,274.43 ZM 220.00 380.83 C220.00,380.19 220.28,379.95 220.62,380.29 C220.96,380.63 221.97,380.17 222.86,379.28 C224.06,378.09 224.15,377.55 223.23,377.24 C222.55,377.02 222.24,376.42 222.55,375.91 C222.86,375.41 222.00,375.00 220.64,375.00 C219.28,375.00 218.02,374.66 217.83,374.25 C216.97,372.30 210.60,368.00 208.57,368.00 C206.33,368.00 206.29,367.81 206.09,354.50 L 205.88 341.00 L 216.00 341.00 L 216.00 353.55 C216.00,367.62 217.00,370.93 221.85,372.94 C224.30,373.95 225.33,373.88 227.94,372.53 C229.67,371.64 231.52,369.77 232.04,368.39 C232.57,367.00 233.00,360.27 233.00,353.43 L 233.00 341.00 L 243.15 341.00 L 242.82 355.25 C242.43,372.37 241.08,376.12 233.98,379.75 C229.19,382.20 220.00,382.91 220.00,380.83 ZM 251.49 381.16 C251.22,380.89 251.00,371.72 251.00,360.78 L 251.00 340.90 L 256.23 341.20 L 261.45 341.50 L 261.16 357.25 L 260.86 373.00 L 280.00 373.00 L 280.00 375.85 C280.00,381.25 277.62,382.15 264.09,381.89 C257.43,381.76 251.76,381.43 251.49,381.16 ZM 258.00 277.13 C252.11,275.64 251.66,274.85 251.19,265.15 C250.70,254.92 251.35,251.00 253.53,251.00 C255.10,251.00 258.99,256.56 259.00,258.81 C259.00,259.52 261.25,262.89 264.00,266.29 C270.08,273.80 270.28,275.55 265.25,276.95 C263.19,277.52 261.27,277.94 261.00,277.88 C260.73,277.81 259.38,277.48 258.00,277.13 ZM 266.06 225.18 C263.07,223.82 258.57,222.17 256.06,221.53 L 251.50 220.37 L 251.50 219.82 C251.92,220.57 252.93,220.59 255.19,219.95 C257.00,219.43 260.96,218.99 263.99,218.97 C272.57,218.92 274.40,216.67 275.50,204.87 C275.62,203.57 275.74,202.40 275.82,201.36 C275.92,203.92 275.98,206.96 275.98,210.13 C276.00,224.22 275.92,224.82 273.75,226.22 C271.72,227.53 270.97,227.43 266.06,225.18 ZM 280.46 191.04 C281.42,192.73 282.00,194.59 282.00,196.33 C282.00,199.24 283.14,200.28 288.80,202.54 C292.92,204.18 293.26,204.18 296.75,202.38 C298.75,201.35 304.60,197.25 309.74,193.27 C311.08,192.23 312.49,191.16 313.89,190.12 C306.49,195.73 297.64,203.19 291.25,209.36 L 282.00 218.29 L 282.00 206.10 C282.00,198.31 281.68,193.91 280.46,191.04 ZM 171.53 287.71 C171.10,286.72 171.03,285.63 171.38,285.29 C172.39,284.27 173.21,285.70 172.74,287.67 C172.33,289.42 172.27,289.42 171.53,287.71 ZM 275.32 194.79 C275.25,194.68 275.17,194.57 275.08,194.47 C274.54,193.88 273.73,193.53 272.55,193.33 C274.10,193.50 274.88,193.79 275.15,194.22 C275.21,194.31 275.27,194.50 275.32,194.79 ZM 265.35 193.17 C264.67,193.18 263.94,193.20 263.17,193.22 L 251.50 193.50 L 262.92 193.22 C263.78,193.19 264.59,193.18 265.35,193.17 ZM 323.18 183.64 C323.30,183.56 323.43,183.49 323.54,183.42 C323.59,183.40 323.63,183.37 323.68,183.34 C323.52,183.44 323.35,183.54 323.18,183.64 Z" fill="rgba(99,72,204,1)"/>
<path d="M 310.00 190.43 C310.00,192.63 310.05,192.90 314.12,189.96 C312.64,191.05 311.15,192.18 309.74,193.27 C304.60,197.25 298.75,201.35 296.75,202.38 C293.26,204.18 292.92,204.18 288.80,202.54 C283.14,200.28 282.00,199.24 282.00,196.33 C282.00,192.56 279.29,188.21 275.73,186.27 C272.78,184.65 268.63,184.50 227.50,184.50 L 182.50 184.50 L 211.50 183.74 C248.04,182.79 255.27,181.18 248.75,175.47 C246.62,173.61 244.68,173.48 213.76,173.20 C209.48,173.16 205.74,173.13 202.47,173.11 C212.96,173.02 228.02,173.00 249.85,173.00 C267.49,173.00 280.83,173.00 290.98,173.06 C286.25,173.19 282.83,173.46 282.57,173.89 C281.86,175.04 289.20,178.00 292.77,178.00 C296.52,178.00 307.60,183.39 308.92,185.86 C309.52,186.96 310.00,189.02 310.00,190.43 ZM 251.42 219.64 C251.15,218.95 251.06,212.79 251.22,205.94 L 251.50 193.50 L 263.17 193.22 C270.29,193.05 273.65,192.89 275.08,194.47 C276.41,195.95 276.05,198.95 275.50,204.87 C274.40,216.67 272.57,218.92 263.99,218.97 C260.96,218.99 257.00,219.43 255.19,219.95 C252.76,220.64 251.77,220.56 251.42,219.64 ZM 323.10 174.96 C324.60,175.56 325.32,176.35 326.25,177.38 C326.41,177.55 326.56,177.72 326.69,177.87 C325.76,176.86 324.44,175.77 323.10,174.96 ZM 325.54 182.22 C324.99,182.57 324.32,182.97 323.54,183.42 C322.06,184.29 319.21,186.25 316.06,188.53 C316.12,188.49 316.19,188.44 316.25,188.39 C319.69,185.86 323.74,183.15 325.25,182.37 C325.35,182.32 325.45,182.27 325.54,182.22 Z" fill="rgba(160,92,223,1)"/>
<path d="M 200.53 165.86 C200.25,165.11 198.29,159.56 196.16,153.52 C192.43,142.93 192.18,142.52 188.95,141.86 C184.97,141.04 183.00,138.68 183.00,134.74 C183.00,130.65 184.50,128.37 188.02,127.14 C194.23,124.98 199.71,129.92 198.70,136.77 C198.23,139.98 198.53,140.80 200.88,142.66 C209.70,149.66 221.25,151.95 228.65,148.18 C234.31,145.29 239.73,138.86 243.64,130.40 L 247.01 123.10 L 244.51 120.60 C241.21,117.30 241.19,112.72 244.45,109.45 C247.70,106.21 252.30,106.21 255.55,109.45 C258.83,112.73 258.79,117.30 255.47,120.62 L 252.94 123.16 L 256.59 130.75 C261.53,141.03 267.68,147.48 274.63,149.67 C277.58,150.60 280.00,151.69 280.00,152.09 C280.00,152.49 282.25,153.39 285.00,154.10 C287.75,154.80 290.00,155.69 290.00,156.07 C290.00,156.87 285.59,158.80 282.00,159.55 C277.38,160.53 250.63,162.81 236.32,163.45 C223.16,164.04 212.09,165.13 204.26,166.61 C202.00,167.04 200.87,166.81 200.53,165.86 ZM 174.48 235.20 C171.46,233.04 171.05,229.64 170.96,205.48 C170.86,178.09 170.95,177.68 177.43,174.60 C180.62,173.09 184.61,172.93 213.76,173.20 C244.68,173.48 246.62,173.61 248.75,175.47 C255.27,181.18 248.04,182.79 211.50,183.74 L 182.50 184.50 L 181.85 202.00 C181.49,211.62 180.63,222.53 179.94,226.24 C178.71,232.84 176.42,236.59 174.48,235.20 Z" fill="rgba(181,60,234,1)"/>
<path d="M 310.00 190.43 C310.00,189.02 309.52,186.96 308.92,185.86 C307.60,183.39 296.52,178.00 292.77,178.00 C289.20,178.00 281.86,175.04 282.57,173.89 C283.44,172.48 318.40,172.78 321.70,174.23 C324.59,175.50 328.00,178.69 328.00,180.13 C328.00,180.58 326.76,181.59 325.25,182.37 C323.74,183.15 319.69,185.86 316.25,188.39 C310.07,192.94 310.00,192.97 310.00,190.43 Z" fill="rgba(169,138,225,1)"/>
</g>
</svg>